<?xml version="1.0" encoding="utf-8"?>
<!-- Generator: Adobe Illustrator 24.1.0, SVG Export Plug-In . SVG Version: 6.00 Build 0)  -->
<svg version="1.1" id="Layer_1" xmlns="http://www.w3.org/2000/svg" xmlns:xlink="http://www.w3.org/1999/xlink" x="0px" y="0px"
	 viewBox="0 0 190 36.4" style="enable-background:new 0 0 190 36.4;" xml:space="preserve">
<style type="text/css">
	.st0{fill:#FFFFFF;}
	.st1{fill:#151515;}
</style>
<path class="st0" d="M0,18.4c0-9.9,8.1-18,18-18h153c9.9,0,18,8.1,18,18c0,9.9-8.1,18-18,18H18C8,36.4,0,28.3,0,18.4z"/>
<path class="st1" d="M16.2,11.3h2.8v4.8h4.3v-4.8H26v12.3h-2.7v-5.2h-4.3v5.2h-2.8V11.3z M32.3,23.7c-1.6,0-2.7-0.4-3.5-1.1
	c-0.7-0.7-1.1-1.8-1.1-3.3v-0.9c0-0.7,0.1-1.3,0.3-1.9c0.2-0.5,0.5-1,0.9-1.4c0.4-0.4,0.8-0.7,1.3-0.8c0.5-0.2,1.1-0.3,1.7-0.3
	c1.4,0,2.4,0.4,3,1.1c0.6,0.7,1,1.8,1,3.3v1.2h-5.6c0,0.4,0.1,0.8,0.2,1c0.1,0.3,0.3,0.5,0.5,0.6c0.2,0.1,0.5,0.2,0.8,0.3
	c0.3,0.1,0.7,0.1,1.1,0.1c0.6,0,1.1-0.1,1.5-0.2c0.4-0.1,0.8-0.2,1.2-0.4v1.8c-0.3,0.2-0.8,0.4-1.3,0.5
	C33.8,23.6,33.1,23.7,32.3,23.7z M31.9,15.8c-0.2,0-0.4,0-0.6,0.1c-0.2,0.1-0.4,0.2-0.5,0.3c-0.1,0.2-0.3,0.4-0.4,0.7
	c-0.1,0.3-0.1,0.6-0.2,1.1h3.2c0-0.4,0-0.8-0.1-1c-0.1-0.3-0.2-0.5-0.3-0.7c-0.1-0.2-0.3-0.3-0.5-0.3C32.4,15.9,32.1,15.8,31.9,15.8
	z M39.7,23.7c-0.8,0-1.5-0.2-2-0.7c-0.5-0.4-0.8-1.1-0.8-2c0-0.5,0.1-0.9,0.2-1.2c0.1-0.3,0.4-0.6,0.6-0.8c0.3-0.2,0.6-0.4,1-0.5
	c0.4-0.1,0.8-0.2,1.3-0.3l1.8-0.3v-0.6c0-0.5-0.1-0.8-0.4-1c-0.3-0.2-0.8-0.3-1.5-0.3c-0.4,0-0.9,0-1.3,0.1c-0.4,0.1-0.7,0.1-1,0.2
	v-1.8c0.9-0.4,2-0.5,3.3-0.5c1.1,0,2,0.2,2.5,0.7c0.6,0.5,0.9,1.2,0.9,2.3v6.5h-2.1l-0.2-0.9H42c-0.2,0.3-0.5,0.6-0.9,0.8
	C40.7,23.6,40.3,23.7,39.7,23.7z M40.6,22c0.3,0,0.5,0,0.7-0.1c0.2-0.1,0.4-0.2,0.5-0.3v-2.2l-1.3,0.1c-0.4,0-0.7,0.2-0.9,0.4
	c-0.2,0.2-0.3,0.5-0.3,0.9c0,0.4,0.1,0.7,0.3,0.9C40,21.9,40.2,22,40.6,22z M46.3,14.2h2.4v1.4h0.1c0.3-0.5,0.6-0.9,1.1-1.1
	c0.4-0.3,0.9-0.4,1.3-0.4c0.1,0,0.2,0,0.3,0c0.1,0,0.2,0,0.2,0.1v2.4c-0.1,0-0.2,0-0.4-0.1c-0.1,0-0.3,0-0.4,0c-0.4,0-0.8,0-1.2,0.1
	c-0.4,0.1-0.7,0.2-1,0.4v6.6h-2.6V14.2z M57.6,16.1h-1.3v-1.9h1.3v-1c0-0.5,0.1-0.9,0.2-1.3c0.2-0.4,0.4-0.7,0.6-0.9
	c0.3-0.2,0.6-0.4,1-0.5c0.4-0.1,0.8-0.2,1.2-0.2c0.4,0,0.8,0,1.1,0.1c0.3,0.1,0.6,0.1,0.7,0.2v1.7c-0.1,0-0.3,0-0.5-0.1
	c-0.2,0-0.4,0-0.6,0c-0.4,0-0.8,0.1-1,0.3c-0.2,0.2-0.3,0.5-0.3,1v0.7h1.9v1.9h-1.9v7.4h-2.6V16.1z M63.5,14.2H66v1.4h0.1
	c0.3-0.5,0.6-0.9,1.1-1.1c0.4-0.3,0.9-0.4,1.3-0.4c0.1,0,0.2,0,0.3,0c0.1,0,0.2,0,0.2,0.1v2.4c-0.1,0-0.2,0-0.4-0.1
	c-0.1,0-0.3,0-0.4,0c-0.4,0-0.8,0-1.2,0.1c-0.4,0.1-0.7,0.2-1,0.4v6.6h-2.5V14.2z M74.3,23.7c-1.4,0-2.5-0.4-3.2-1.1
	c-0.7-0.7-1.1-1.8-1.1-3.2v-0.9c0-0.7,0.1-1.4,0.3-1.9c0.2-0.6,0.5-1,0.9-1.4c0.4-0.4,0.8-0.7,1.4-0.8c0.5-0.2,1.1-0.3,1.8-0.3
	c1.4,0,2.5,0.4,3.2,1.1c0.7,0.7,1.1,1.8,1.1,3.2v0.9c0,0.7-0.1,1.4-0.3,2c-0.2,0.6-0.5,1-0.9,1.4C77,23,76.5,23.2,76,23.4
	C75.5,23.6,74.9,23.7,74.3,23.7z M74.3,21.8c0.3,0,0.5,0,0.7-0.1c0.2-0.1,0.4-0.2,0.5-0.4c0.1-0.2,0.3-0.4,0.3-0.7
	c0.1-0.3,0.1-0.7,0.1-1.1v-1c0-0.5,0-1-0.1-1.3c-0.1-0.3-0.2-0.6-0.4-0.8c-0.2-0.2-0.3-0.3-0.6-0.4c-0.2-0.1-0.4-0.1-0.7-0.1
	c-0.6,0-1,0.2-1.3,0.5c-0.3,0.4-0.4,1-0.4,1.9v1c0,0.5,0,0.9,0.1,1.3c0.1,0.3,0.2,0.6,0.4,0.8c0.2,0.2,0.3,0.3,0.6,0.4
	C73.8,21.8,74,21.8,74.3,21.8z M80.2,14.2h2.5v1.1h0.1c0.4-0.4,0.8-0.7,1.2-0.9c0.5-0.2,1-0.3,1.5-0.3c0.5,0,1,0.1,1.3,0.3
	c0.4,0.2,0.6,0.5,0.8,1h0.1c0.4-0.4,0.9-0.7,1.4-1s1-0.3,1.5-0.3c0.8,0,1.4,0.2,1.8,0.6s0.6,1,0.6,2v7h-2.6v-6.2
	c0-0.4-0.1-0.7-0.3-0.9c-0.2-0.2-0.4-0.3-0.9-0.3c-0.5,0-1,0.1-1.5,0.3v7h-2.6v-6.2c0-0.4-0.1-0.7-0.2-0.9c-0.2-0.2-0.5-0.3-0.9-0.3
	c-0.3,0-0.5,0-0.8,0.1c-0.2,0.1-0.5,0.1-0.7,0.2v7h-2.6V14.2z M102.7,23.7c-1.4,0-2.5-0.4-3.2-1.1c-0.7-0.7-1.1-1.8-1.1-3.2v-0.9
	c0-0.7,0.1-1.4,0.3-1.9c0.2-0.6,0.5-1,0.9-1.4c0.4-0.4,0.8-0.7,1.4-0.8c0.5-0.2,1.1-0.3,1.8-0.3c1.4,0,2.5,0.4,3.2,1.1
	c0.7,0.7,1.1,1.8,1.1,3.2v0.9c0,0.7-0.1,1.4-0.3,2c-0.2,0.6-0.5,1-0.9,1.4c-0.4,0.4-0.8,0.6-1.4,0.8C104,23.6,103.4,23.7,102.7,23.7
	z M102.8,21.8c0.3,0,0.5,0,0.7-0.1c0.2-0.1,0.4-0.2,0.5-0.4c0.1-0.2,0.3-0.4,0.3-0.7c0.1-0.3,0.1-0.7,0.1-1.1v-1c0-0.5,0-1-0.1-1.3
	c-0.1-0.3-0.2-0.6-0.4-0.8c-0.2-0.2-0.3-0.3-0.6-0.4c-0.2-0.1-0.4-0.1-0.7-0.1c-0.6,0-1,0.2-1.3,0.5c-0.3,0.4-0.4,1-0.4,1.9v1
	c0,0.5,0,0.9,0.1,1.3c0.1,0.3,0.2,0.6,0.4,0.8c0.2,0.2,0.3,0.3,0.6,0.4C102.3,21.8,102.5,21.8,102.8,21.8z M111.2,23.7
	c-0.9,0-1.5-0.2-2-0.7c-0.5-0.4-0.7-1.1-0.7-2v-6.8h2.5v6.2c0,0.4,0.1,0.7,0.2,1c0.2,0.2,0.5,0.3,1,0.3c0.3,0,0.6-0.1,0.9-0.2
	c0.3-0.1,0.5-0.2,0.7-0.3v-7h2.5v9.3h-2.2l-0.2-1.1H114c-0.4,0.4-0.8,0.7-1.3,0.9S111.8,23.7,111.2,23.7z M118.4,14.2h2.4v1.4h0.1
	c0.3-0.5,0.6-0.9,1.1-1.1c0.4-0.3,0.9-0.4,1.3-0.4c0.1,0,0.2,0,0.3,0c0.1,0,0.2,0,0.2,0.1v2.4c-0.1,0-0.2,0-0.4-0.1
	c-0.1,0-0.3,0-0.4,0c-0.4,0-0.8,0-1.2,0.1c-0.4,0.1-0.7,0.2-1,0.4v6.6h-2.6V14.2z M133.2,23.7c-1.6,0-2.7-0.4-3.5-1.1
	c-0.7-0.7-1.1-1.8-1.1-3.3v-0.9c0-0.7,0.1-1.3,0.3-1.9c0.2-0.5,0.5-1,0.8-1.4c0.4-0.4,0.8-0.7,1.3-0.8c0.5-0.2,1.1-0.3,1.7-0.3
	c1.4,0,2.4,0.4,3,1.1c0.6,0.7,1,1.8,1,3.3v1.2h-5.6c0,0.4,0.1,0.8,0.2,1c0.1,0.3,0.3,0.5,0.5,0.6c0.2,0.1,0.5,0.2,0.8,0.3
	s0.7,0.1,1.1,0.1c0.6,0,1.1-0.1,1.5-0.2c0.4-0.1,0.8-0.2,1.2-0.4v1.8c-0.3,0.2-0.8,0.4-1.3,0.5C134.7,23.6,134,23.7,133.2,23.7z
	 M132.8,15.8c-0.2,0-0.4,0-0.6,0.1c-0.2,0.1-0.4,0.2-0.5,0.3c-0.1,0.2-0.3,0.4-0.4,0.7c-0.1,0.3-0.1,0.6-0.2,1.1h3.2
	c0-0.4,0-0.8-0.1-1c-0.1-0.3-0.2-0.5-0.3-0.7c-0.1-0.2-0.3-0.3-0.5-0.3C133.3,15.9,133.1,15.8,132.8,15.8z M141.5,23.7
	c-0.5,0-0.9-0.1-1.3-0.2c-0.4-0.1-0.8-0.4-1.1-0.7c-0.3-0.3-0.6-0.8-0.8-1.3c-0.2-0.5-0.3-1.2-0.3-2v-0.9c0-0.8,0.1-1.5,0.3-2.1
	c0.2-0.6,0.5-1,0.8-1.4c0.3-0.4,0.7-0.6,1.2-0.8s1-0.2,1.6-0.2c0.5,0,0.9,0.1,1.3,0.2c0.3,0.1,0.6,0.3,0.8,0.5v-4.3h2.5v13.1h-2.2
	l-0.2-1H144c-0.3,0.4-0.6,0.7-1.1,0.9C142.5,23.6,142,23.7,141.5,23.7z M142.4,21.7c0.3,0,0.6-0.1,0.9-0.2c0.2-0.1,0.5-0.2,0.6-0.4
	v-4.9c-0.1-0.1-0.3-0.2-0.6-0.3c-0.2-0.1-0.5-0.1-0.9-0.1c-0.3,0-0.6,0-0.8,0.1c-0.2,0.1-0.4,0.2-0.6,0.4c-0.2,0.2-0.3,0.4-0.4,0.7
	c-0.1,0.3-0.1,0.7-0.1,1.2v1c0,0.5,0,0.9,0.1,1.2c0.1,0.3,0.2,0.5,0.4,0.7c0.2,0.2,0.4,0.3,0.6,0.4
	C141.9,21.7,142.1,21.7,142.4,21.7z M148.4,14.2h2.5v9.3h-2.5V14.2z M148.4,10.6h2.6v2.2h-2.6V10.6z M156.3,23.7
	c-0.4,0-0.8,0-1.2-0.1c-0.3-0.1-0.6-0.2-0.8-0.4c-0.2-0.2-0.4-0.4-0.5-0.8c-0.1-0.3-0.2-0.7-0.2-1.2v-5h-1.3v-1.9h1.3V12h2.5v2.2
	h2.1v1.9h-2.1v4.6c0,0.4,0.1,0.6,0.3,0.7c0.2,0.1,0.5,0.2,0.8,0.2c0.2,0,0.3,0,0.5,0c0.2,0,0.4-0.1,0.5-0.1v1.7
	c-0.2,0.1-0.5,0.2-0.8,0.3S156.8,23.7,156.3,23.7z M163.7,23.7c-1.4,0-2.5-0.4-3.2-1.1c-0.7-0.7-1.1-1.8-1.1-3.2v-0.9
	c0-0.7,0.1-1.4,0.3-1.9c0.2-0.6,0.5-1,0.9-1.4c0.4-0.4,0.8-0.7,1.4-0.8c0.5-0.2,1.1-0.3,1.8-0.3c1.4,0,2.5,0.4,3.2,1.1
	c0.7,0.7,1.1,1.8,1.1,3.2v0.9c0,0.7-0.1,1.4-0.3,2c-0.2,0.6-0.5,1-0.9,1.4c-0.4,0.4-0.8,0.6-1.4,0.8C165,23.6,164.4,23.7,163.7,23.7
	z M163.8,21.8c0.3,0,0.5,0,0.7-0.1c0.2-0.1,0.4-0.2,0.5-0.4c0.1-0.2,0.3-0.4,0.3-0.7c0.1-0.3,0.1-0.7,0.1-1.1v-1c0-0.5,0-1-0.1-1.3
	c-0.1-0.3-0.2-0.6-0.4-0.8c-0.2-0.2-0.3-0.3-0.6-0.4c-0.2-0.1-0.4-0.1-0.7-0.1c-0.6,0-1,0.2-1.3,0.5c-0.3,0.4-0.4,1-0.4,1.9v1
	c0,0.5,0,0.9,0.1,1.3c0.1,0.3,0.2,0.6,0.4,0.8c0.2,0.2,0.3,0.3,0.6,0.4C163.3,21.8,163.5,21.8,163.8,21.8z M169.6,14.2h2.4v1.4h0.1
	c0.3-0.5,0.6-0.9,1.1-1.1c0.4-0.3,0.9-0.4,1.3-0.4c0.1,0,0.2,0,0.3,0c0.1,0,0.2,0,0.2,0.1v2.4c-0.1,0-0.2,0-0.4-0.1
	c-0.1,0-0.3,0-0.4,0c-0.4,0-0.8,0-1.2,0.1c-0.4,0.1-0.7,0.2-1,0.4v6.6h-2.6V14.2z"/>
</svg>
