<svg x="0px" y="0px" viewBox="0 0 601 83" style="enable-background:new 0 0 636 134;" xml:space="preserve" xmlns="http://www.w3.org/2000/svg">
<path d="M30.156 18.67C30.156 21.33 29.75 23.654 28.938 25.642C28.126 27.63 27.034 29.282 25.662 30.598C24.318 31.886 22.75 32.866 20.958 33.538C19.166 34.182 17.318 34.504 15.414 34.504C13.314 34.504 11.368 34.182 9.576 33.538C7.812 32.866 6.272 31.886 4.956 30.598C3.668 29.282 2.66 27.658 1.932 25.726C1.204 23.766 0.839996 21.526 0.839996 19.006C0.839996 16.318 1.246 13.98 2.058 11.992C2.898 10.004 3.99 8.36601 5.334 7.07801C6.706 5.79001 8.288 4.82401 10.08 4.18001C11.872 3.53601 13.72 3.21401 15.624 3.21401C17.696 3.21401 19.628 3.55001 21.42 4.22201C23.212 4.86601 24.752 5.83201 26.04 7.12001C27.328 8.40801 28.336 10.018 29.064 11.95C29.792 13.882 30.156 16.122 30.156 18.67ZM15.498 3.97001C14.63 3.97001 13.874 4.20801 13.23 4.68401C12.586 5.13201 12.054 5.91601 11.634 7.03601C11.242 8.15601 10.948 9.66801 10.752 11.572C10.556 13.476 10.458 15.87 10.458 18.754C10.458 21.722 10.542 24.186 10.71 26.146C10.906 28.078 11.2 29.604 11.592 30.724C11.984 31.844 12.502 32.628 13.146 33.076C13.79 33.524 14.574 33.748 15.498 33.748C16.366 33.748 17.108 33.524 17.724 33.076C18.368 32.628 18.886 31.858 19.278 30.766C19.698 29.646 19.992 28.134 20.16 26.23C20.356 24.326 20.454 21.932 20.454 19.048C20.454 16.024 20.356 13.532 20.16 11.572C19.992 9.61201 19.698 8.07201 19.278 6.95201C18.886 5.83201 18.368 5.06201 17.724 4.64201C17.108 4.19401 16.366 3.97001 15.498 3.97001Z" fill="#121212"/>
<path d="M33.7798 13.63L31.2598 12.622V11.908L40.4578 10.564L41.4658 10.648V28.036C41.4658 29.324 41.7178 30.192 42.2218 30.64C42.7538 31.088 43.4818 31.312 44.4058 31.312C44.9378 31.312 45.4278 31.256 45.8758 31.144C46.3518 31.004 46.8138 30.836 47.2618 30.64V13.63L44.7418 12.622V11.908L53.9398 10.564L54.8638 10.648V31.354L57.3418 32.362V33.076L48.2698 34.504L47.3458 34.42V31.48H47.0938C46.2258 32.348 45.2178 33.09 44.0698 33.706C42.9218 34.294 41.6338 34.588 40.2058 34.588C38.0218 34.588 36.3978 33.986 35.3338 32.782C34.2978 31.578 33.7798 29.996 33.7798 28.036V13.63Z" fill="#121212"/>
<path d="M58.5421 11.908L67.8241 10.564L68.5801 10.648V17.2H68.7901C69.3781 14.708 70.1481 12.944 71.1001 11.908C72.0801 10.844 73.2141 10.312 74.5021 10.312C74.6981 10.312 74.9081 10.326 75.1321 10.354C75.3561 10.382 75.5241 10.424 75.6361 10.48V17.41C75.4401 17.354 75.1601 17.312 74.7961 17.284C74.4601 17.256 74.1101 17.242 73.7461 17.242C72.7101 17.242 71.7861 17.298 70.9741 17.41C70.1621 17.522 69.4201 17.718 68.7481 17.998V32.656L71.8561 33.286V34H58.6681V33.286L61.0621 32.656V13.63L58.5421 12.622V11.908Z" fill="#121212"/>
<path d="M95.1507 18.922C97.3067 19.93 98.9447 20.994 100.065 22.114C101.185 23.234 101.745 24.844 101.745 26.944C101.745 29.296 100.933 31.158 99.3087 32.53C97.6847 33.874 95.3467 34.546 92.2947 34.546C90.9227 34.546 89.5507 34.448 88.1787 34.252C86.8067 34.084 85.5607 33.79 84.4407 33.37L84.1887 26.566H84.9027L90.9087 33.58C91.1047 33.636 91.3147 33.692 91.5387 33.748C91.7627 33.776 91.9727 33.79 92.1687 33.79C93.4567 33.79 94.3947 33.468 94.9827 32.824C95.5987 32.18 95.9067 31.326 95.9067 30.262C95.9067 29.31 95.6267 28.582 95.0667 28.078C94.5067 27.574 93.5687 27.014 92.2527 26.398L90.8667 25.768C88.7667 24.788 87.1287 23.71 85.9527 22.534C84.8047 21.358 84.2307 19.804 84.2307 17.872C84.2307 15.52 85.0147 13.686 86.5827 12.37C88.1507 11.054 90.3347 10.396 93.1347 10.396C94.2827 10.396 95.4587 10.452 96.6627 10.564C97.8667 10.676 98.9447 10.872 99.8967 11.152L100.107 17.494H99.3927L94.8147 11.362C94.5627 11.278 94.3107 11.222 94.0587 11.194C93.8067 11.138 93.5687 11.11 93.3447 11.11C92.2247 11.11 91.3987 11.404 90.8667 11.992C90.3347 12.58 90.0687 13.35 90.0687 14.302C90.0687 15.338 90.3487 16.108 90.9087 16.612C91.4687 17.116 92.4487 17.69 93.8487 18.334L95.1507 18.922Z" fill="#121212"/>
<path d="M105.393 13.63L102.873 12.622V11.908L112.071 10.564L113.079 10.648V28.036C113.079 29.324 113.331 30.192 113.835 30.64C114.367 31.088 115.095 31.312 116.019 31.312C116.551 31.312 117.041 31.256 117.489 31.144C117.965 31.004 118.427 30.836 118.875 30.64V13.63L116.355 12.622V11.908L125.553 10.564L126.477 10.648V31.354L128.955 32.362V33.076L119.883 34.504L118.959 34.42V31.48H118.707C117.839 32.348 116.831 33.09 115.683 33.706C114.535 34.294 113.247 34.588 111.819 34.588C109.635 34.588 108.011 33.986 106.947 32.782C105.911 31.578 105.393 29.996 105.393 28.036V13.63Z" fill="#121212"/>
<path d="M154.809 21.82C154.809 24.06 154.515 25.992 153.927 27.616C153.367 29.24 152.597 30.57 151.617 31.606C150.637 32.614 149.489 33.356 148.173 33.832C146.885 34.308 145.527 34.546 144.099 34.546C143.231 34.546 142.447 34.49 141.747 34.378C141.075 34.266 140.571 34.154 140.235 34.042V41.686L142.965 42.274V42.988H130.155V42.274L132.549 41.686V13.63L130.029 12.622V11.908L139.311 10.564L140.193 10.648V13.294H140.445C141.033 12.594 141.873 11.95 142.965 11.362C144.057 10.746 145.373 10.438 146.913 10.438C148.005 10.438 149.027 10.648 149.979 11.068C150.959 11.46 151.799 12.104 152.499 13C153.227 13.896 153.787 15.072 154.179 16.528C154.599 17.984 154.809 19.748 154.809 21.82ZM146.787 22.66C146.787 19.16 146.423 16.78 145.695 15.52C144.967 14.26 143.959 13.63 142.671 13.63C142.195 13.63 141.747 13.686 141.327 13.798C140.907 13.882 140.543 13.98 140.235 14.092V32.656C140.515 32.852 140.837 33.034 141.201 33.202C141.565 33.37 142.013 33.454 142.545 33.454C143.861 33.454 144.897 32.656 145.653 31.06C146.409 29.464 146.787 26.664 146.787 22.66Z" fill="#121212"/>
<path d="M180.895 21.82C180.895 24.06 180.601 25.992 180.013 27.616C179.453 29.24 178.683 30.57 177.703 31.606C176.723 32.614 175.575 33.356 174.259 33.832C172.971 34.308 171.613 34.546 170.185 34.546C169.317 34.546 168.533 34.49 167.833 34.378C167.161 34.266 166.657 34.154 166.321 34.042V41.686L169.051 42.274V42.988H156.241V42.274L158.635 41.686V13.63L156.115 12.622V11.908L165.397 10.564L166.279 10.648V13.294H166.531C167.119 12.594 167.959 11.95 169.051 11.362C170.143 10.746 171.459 10.438 172.999 10.438C174.091 10.438 175.113 10.648 176.065 11.068C177.045 11.46 177.885 12.104 178.585 13C179.313 13.896 179.873 15.072 180.265 16.528C180.685 17.984 180.895 19.748 180.895 21.82ZM172.873 22.66C172.873 19.16 172.509 16.78 171.781 15.52C171.053 14.26 170.045 13.63 168.757 13.63C168.281 13.63 167.833 13.686 167.413 13.798C166.993 13.882 166.629 13.98 166.321 14.092V32.656C166.601 32.852 166.923 33.034 167.287 33.202C167.651 33.37 168.099 33.454 168.631 33.454C169.947 33.454 170.983 32.656 171.739 31.06C172.495 29.464 172.873 26.664 172.873 22.66Z" fill="#121212"/>
<path d="M194.213 34.63C192.477 34.63 190.881 34.35 189.425 33.79C187.969 33.202 186.723 32.39 185.687 31.354C184.651 30.29 183.839 29.002 183.251 27.49C182.691 25.95 182.411 24.256 182.411 22.408C182.411 20.56 182.691 18.894 183.251 17.41C183.811 15.926 184.609 14.68 185.645 13.672C186.681 12.636 187.913 11.838 189.341 11.278C190.797 10.718 192.407 10.438 194.171 10.438C195.935 10.438 197.545 10.718 199.001 11.278C200.457 11.838 201.703 12.636 202.739 13.672C203.775 14.68 204.573 15.94 205.133 17.452C205.721 18.936 206.015 20.602 206.015 22.45C206.015 24.298 205.735 25.978 205.175 27.49C204.615 29.002 203.817 30.29 202.781 31.354C201.745 32.39 200.499 33.202 199.043 33.79C197.587 34.35 195.977 34.63 194.213 34.63ZM194.213 11.194C193.625 11.194 193.107 11.362 192.659 11.698C192.239 12.006 191.875 12.58 191.567 13.42C191.287 14.26 191.063 15.422 190.895 16.906C190.755 18.362 190.685 20.21 190.685 22.45C190.685 24.718 190.755 26.594 190.895 28.078C191.063 29.534 191.287 30.696 191.567 31.564C191.875 32.432 192.253 33.034 192.701 33.37C193.149 33.706 193.667 33.874 194.255 33.874C194.843 33.874 195.347 33.706 195.767 33.37C196.215 33.006 196.579 32.404 196.859 31.564C197.139 30.696 197.349 29.52 197.489 28.036C197.657 26.552 197.741 24.676 197.741 22.408C197.741 20.168 197.671 18.32 197.531 16.864C197.391 15.408 197.167 14.26 196.859 13.42C196.579 12.58 196.215 12.006 195.767 11.698C195.319 11.362 194.801 11.194 194.213 11.194Z" fill="#121212"/>
<path d="M207.183 11.908L216.465 10.564L217.221 10.648V17.2H217.431C218.019 14.708 218.789 12.944 219.741 11.908C220.721 10.844 221.855 10.312 223.143 10.312C223.339 10.312 223.549 10.326 223.773 10.354C223.997 10.382 224.165 10.424 224.277 10.48V17.41C224.081 17.354 223.801 17.312 223.437 17.284C223.101 17.256 222.751 17.242 222.387 17.242C221.351 17.242 220.427 17.298 219.615 17.41C218.803 17.522 218.061 17.718 217.389 17.998V32.656L220.497 33.286V34H207.309V33.286L209.703 32.656V13.63L207.183 12.622V11.908Z" fill="#121212"/>
<path d="M228.213 12.58H224.937V11.824L228.213 10.984V6.44801L235.857 5.23001V10.984H240.939V12.58H235.857V27.868C235.857 29.044 236.081 29.898 236.529 30.43C236.977 30.934 237.831 31.186 239.091 31.186C239.483 31.186 239.861 31.172 240.225 31.144C240.617 31.088 240.939 31.032 241.191 30.976V31.69C240.519 32.39 239.623 33.034 238.503 33.622C237.411 34.182 236.179 34.462 234.807 34.462C232.623 34.462 230.971 33.916 229.851 32.824C228.759 31.732 228.213 29.954 228.213 27.49V12.58Z" fill="#121212"/>
<path d="M263.473 21.694H249.697C249.837 24.522 250.467 26.762 251.587 28.414C252.735 30.038 254.765 30.85 257.677 30.85C258.629 30.85 259.525 30.78 260.365 30.64C261.205 30.5 262.017 30.262 262.801 29.926V30.598C262.157 31.578 261.051 32.502 259.483 33.37C257.915 34.21 255.997 34.63 253.729 34.63C249.865 34.63 246.939 33.538 244.951 31.354C242.963 29.142 241.969 26.16 241.969 22.408C241.969 18.74 242.991 15.842 245.035 13.714C247.107 11.558 249.893 10.48 253.393 10.48C256.921 10.48 259.483 11.404 261.079 13.252C262.675 15.072 263.473 17.69 263.473 21.106V21.694ZM253.225 11.278C252.133 11.278 251.265 12.048 250.621 13.588C250.005 15.128 249.697 17.55 249.697 20.854L256.207 20.56C256.207 16.976 255.955 14.54 255.451 13.252C254.975 11.936 254.233 11.278 253.225 11.278Z" fill="#121212"/>
<path d="M265.056 11.908L274.338 10.564L275.094 10.648V17.2H275.304C275.892 14.708 276.662 12.944 277.614 11.908C278.594 10.844 279.728 10.312 281.016 10.312C281.212 10.312 281.422 10.326 281.646 10.354C281.87 10.382 282.038 10.424 282.15 10.48V17.41C281.954 17.354 281.674 17.312 281.31 17.284C280.974 17.256 280.624 17.242 280.26 17.242C279.224 17.242 278.3 17.298 277.488 17.41C276.676 17.522 275.934 17.718 275.262 17.998V32.656L278.37 33.286V34H265.182V33.286L267.576 32.656V13.63L265.056 12.622V11.908Z" fill="#121212"/>
<path d="M294.528 18.922C296.684 19.93 298.322 20.994 299.442 22.114C300.562 23.234 301.122 24.844 301.122 26.944C301.122 29.296 300.31 31.158 298.686 32.53C297.062 33.874 294.724 34.546 291.672 34.546C290.3 34.546 288.928 34.448 287.556 34.252C286.184 34.084 284.938 33.79 283.818 33.37L283.566 26.566H284.28L290.286 33.58C290.482 33.636 290.692 33.692 290.916 33.748C291.14 33.776 291.35 33.79 291.546 33.79C292.834 33.79 293.772 33.468 294.36 32.824C294.976 32.18 295.284 31.326 295.284 30.262C295.284 29.31 295.004 28.582 294.444 28.078C293.884 27.574 292.946 27.014 291.63 26.398L290.244 25.768C288.144 24.788 286.506 23.71 285.33 22.534C284.182 21.358 283.608 19.804 283.608 17.872C283.608 15.52 284.392 13.686 285.96 12.37C287.528 11.054 289.712 10.396 292.512 10.396C293.66 10.396 294.836 10.452 296.04 10.564C297.244 10.676 298.322 10.872 299.274 11.152L299.484 17.494H298.77L294.192 11.362C293.94 11.278 293.688 11.222 293.436 11.194C293.184 11.138 292.946 11.11 292.722 11.11C291.602 11.11 290.776 11.404 290.244 11.992C289.712 12.58 289.446 13.35 289.446 14.302C289.446 15.338 289.726 16.108 290.286 16.612C290.846 17.116 291.826 17.69 293.226 18.334L294.528 18.922Z" fill="#121212"/>
<path d="M309.807 33.286L312.201 32.614V3.88601L309.681 2.87801V2.16401L318.795 0.820007L319.761 0.946006V13.588H320.013C320.993 12.58 322.183 11.81 323.583 11.278C324.983 10.718 326.397 10.438 327.825 10.438C329.813 10.438 331.269 10.928 332.193 11.908C333.117 12.888 333.579 14.428 333.579 16.528V32.614L335.973 33.286V34H323.793V33.286L325.935 32.74V16.948C325.935 15.828 325.683 15.002 325.179 14.47C324.675 13.938 323.933 13.672 322.953 13.672C322.337 13.672 321.777 13.742 321.273 13.882C320.797 14.022 320.335 14.204 319.887 14.428V32.74L321.987 33.286V34H309.807V33.286Z" fill="#121212"/>
<path d="M344.307 21.442L349.347 20.476V17.41C349.347 15.086 349.067 13.476 348.507 12.58C347.975 11.684 347.065 11.236 345.777 11.236C345.637 11.236 345.497 11.25 345.357 11.278C345.217 11.278 345.077 11.292 344.937 11.32L339.267 19.006H338.553L338.721 11.866C339.813 11.53 341.059 11.208 342.459 10.9C343.859 10.592 345.455 10.438 347.247 10.438C350.327 10.438 352.735 10.942 354.471 11.95C356.207 12.958 357.075 14.764 357.075 17.368V32.32L359.301 32.908V33.496C358.853 33.776 358.209 34.014 357.369 34.21C356.557 34.434 355.675 34.546 354.723 34.546C353.211 34.546 352.049 34.308 351.237 33.832C350.425 33.356 349.851 32.698 349.515 31.858H349.305C348.661 32.726 347.849 33.412 346.869 33.916C345.889 34.392 344.685 34.63 343.257 34.63C341.409 34.63 339.911 34.084 338.763 32.992C337.615 31.872 337.041 30.318 337.041 28.33C337.041 26.398 337.643 24.886 338.847 23.794C340.051 22.674 341.871 21.89 344.307 21.442ZM347.415 31.606C347.891 31.606 348.283 31.536 348.591 31.396C348.899 31.256 349.151 31.06 349.347 30.808V21.568L347.793 21.694C346.589 21.806 345.735 22.282 345.231 23.122C344.727 23.934 344.475 25.194 344.475 26.902C344.475 28.75 344.741 29.996 345.273 30.64C345.833 31.284 346.547 31.606 347.415 31.606Z" fill="#121212"/>
<path d="M382.342 11.698L379.696 13.42L372.892 34H368.272L360.166 12.748L358.234 11.698V10.984H371.212V11.698L368.566 12.706L373.9 27.7H374.11L378.898 13.42L375.664 11.698V10.984H382.342V11.698Z" fill="#121212"/>
<path d="M403.336 21.694H389.56C389.7 24.522 390.33 26.762 391.45 28.414C392.598 30.038 394.628 30.85 397.54 30.85C398.492 30.85 399.388 30.78 400.228 30.64C401.068 30.5 401.88 30.262 402.664 29.926V30.598C402.02 31.578 400.914 32.502 399.346 33.37C397.778 34.21 395.86 34.63 393.592 34.63C389.728 34.63 386.802 33.538 384.814 31.354C382.826 29.142 381.832 26.16 381.832 22.408C381.832 18.74 382.854 15.842 384.898 13.714C386.97 11.558 389.756 10.48 393.256 10.48C396.784 10.48 399.346 11.404 400.942 13.252C402.538 15.072 403.336 17.69 403.336 21.106V21.694ZM393.088 11.278C391.996 11.278 391.128 12.048 390.484 13.588C389.868 15.128 389.56 17.55 389.56 20.854L396.07 20.56C396.07 16.976 395.818 14.54 395.314 13.252C394.838 11.936 394.096 11.278 393.088 11.278Z" fill="#121212"/>
<path d="M423.018 10.522C423.942 10.522 424.74 10.592 425.412 10.732C426.084 10.872 426.602 11.04 426.966 11.236V3.76001L424.446 2.87801V2.16401L433.728 0.820007L434.61 0.946006V31.942L437.172 32.74V33.454L427.806 34.504L427.092 34.42V31.816H426.882C426.21 32.544 425.412 33.188 424.488 33.748C423.564 34.308 422.402 34.588 421.002 34.588C418.51 34.588 416.438 33.622 414.786 31.69C413.162 29.758 412.35 26.846 412.35 22.954C412.35 18.866 413.33 15.772 415.29 13.672C417.25 11.572 419.826 10.522 423.018 10.522ZM424.824 31.354C425.272 31.354 425.678 31.312 426.042 31.228C426.434 31.116 426.742 30.99 426.966 30.85V12.244C426.686 12.104 426.35 11.978 425.958 11.866C425.566 11.754 425.076 11.698 424.488 11.698C423.256 11.698 422.262 12.496 421.506 14.092C420.778 15.688 420.414 18.334 420.414 22.03C420.414 25.362 420.778 27.756 421.506 29.212C422.262 30.64 423.368 31.354 424.824 31.354Z" fill="#121212"/>
<path d="M449.905 34.63C448.169 34.63 446.573 34.35 445.117 33.79C443.661 33.202 442.415 32.39 441.379 31.354C440.343 30.29 439.531 29.002 438.943 27.49C438.383 25.95 438.103 24.256 438.103 22.408C438.103 20.56 438.383 18.894 438.943 17.41C439.503 15.926 440.301 14.68 441.337 13.672C442.373 12.636 443.605 11.838 445.033 11.278C446.489 10.718 448.099 10.438 449.863 10.438C451.627 10.438 453.237 10.718 454.693 11.278C456.149 11.838 457.395 12.636 458.431 13.672C459.467 14.68 460.265 15.94 460.825 17.452C461.413 18.936 461.707 20.602 461.707 22.45C461.707 24.298 461.427 25.978 460.867 27.49C460.307 29.002 459.509 30.29 458.473 31.354C457.437 32.39 456.191 33.202 454.735 33.79C453.279 34.35 451.669 34.63 449.905 34.63ZM449.905 11.194C449.317 11.194 448.799 11.362 448.351 11.698C447.931 12.006 447.567 12.58 447.259 13.42C446.979 14.26 446.755 15.422 446.587 16.906C446.447 18.362 446.377 20.21 446.377 22.45C446.377 24.718 446.447 26.594 446.587 28.078C446.755 29.534 446.979 30.696 447.259 31.564C447.567 32.432 447.945 33.034 448.393 33.37C448.841 33.706 449.359 33.874 449.947 33.874C450.535 33.874 451.039 33.706 451.459 33.37C451.907 33.006 452.271 32.404 452.551 31.564C452.831 30.696 453.041 29.52 453.181 28.036C453.349 26.552 453.433 24.676 453.433 22.408C453.433 20.168 453.363 18.32 453.223 16.864C453.083 15.408 452.859 14.26 452.551 13.42C452.271 12.58 451.907 12.006 451.459 11.698C451.011 11.362 450.493 11.194 449.905 11.194Z" fill="#121212"/>
<path d="M463 33.286L465.394 32.614V13.63L462.874 12.622V11.908L472.03 10.564L472.954 10.648V13.588H473.206C474.186 12.58 475.376 11.81 476.776 11.278C478.176 10.718 479.59 10.438 481.018 10.438C483.006 10.438 484.462 10.928 485.386 11.908C486.31 12.888 486.772 14.428 486.772 16.528V32.614L489.166 33.286V34H476.986V33.286L479.128 32.74V16.948C479.128 15.828 478.876 15.002 478.372 14.47C477.868 13.938 477.126 13.672 476.146 13.672C475.53 13.672 474.97 13.742 474.466 13.882C473.99 14.022 473.528 14.204 473.08 14.428V32.74L475.18 33.286V34H463V33.286Z" fill="#121212"/>
<path d="M511.864 21.694H498.088C498.228 24.522 498.858 26.762 499.978 28.414C501.126 30.038 503.156 30.85 506.068 30.85C507.02 30.85 507.916 30.78 508.756 30.64C509.596 30.5 510.408 30.262 511.192 29.926V30.598C510.548 31.578 509.442 32.502 507.874 33.37C506.306 34.21 504.388 34.63 502.12 34.63C498.256 34.63 495.33 33.538 493.342 31.354C491.354 29.142 490.36 26.16 490.36 22.408C490.36 18.74 491.382 15.842 493.426 13.714C495.498 11.558 498.284 10.48 501.784 10.48C505.312 10.48 507.874 11.404 509.47 13.252C511.066 15.072 511.864 17.69 511.864 21.106V21.694ZM501.616 11.278C500.524 11.278 499.656 12.048 499.012 13.588C498.396 15.128 498.088 17.55 498.088 20.854L504.598 20.56C504.598 16.976 504.346 14.54 503.842 13.252C503.366 11.936 502.624 11.278 501.616 11.278Z" fill="#121212"/>
<path d="M200.012 57.922C202.168 58.93 203.806 59.994 204.926 61.114C206.046 62.234 206.606 63.844 206.606 65.944C206.606 68.296 205.794 70.158 204.17 71.53C202.546 72.874 200.208 73.546 197.156 73.546C195.784 73.546 194.412 73.448 193.04 73.252C191.668 73.084 190.422 72.79 189.302 72.37L189.05 65.566H189.764L195.77 72.58C195.966 72.636 196.176 72.692 196.4 72.748C196.624 72.776 196.834 72.79 197.03 72.79C198.318 72.79 199.256 72.468 199.844 71.824C200.46 71.18 200.768 70.326 200.768 69.262C200.768 68.31 200.488 67.582 199.928 67.078C199.368 66.574 198.43 66.014 197.114 65.398L195.728 64.768C193.628 63.788 191.99 62.71 190.814 61.534C189.666 60.358 189.092 58.804 189.092 56.872C189.092 54.52 189.876 52.686 191.444 51.37C193.012 50.054 195.196 49.396 197.996 49.396C199.144 49.396 200.32 49.452 201.524 49.564C202.728 49.676 203.806 49.872 204.758 50.152L204.968 56.494H204.254L199.676 50.362C199.424 50.278 199.172 50.222 198.92 50.194C198.668 50.138 198.43 50.11 198.206 50.11C197.086 50.11 196.26 50.404 195.728 50.992C195.196 51.58 194.93 52.35 194.93 53.302C194.93 54.338 195.21 55.108 195.77 55.612C196.33 56.116 197.31 56.69 198.71 57.334L200.012 57.922Z" fill="white"/>
<path d="M219.914 73.63C218.178 73.63 216.582 73.35 215.126 72.79C213.67 72.202 212.424 71.39 211.388 70.354C210.352 69.29 209.54 68.002 208.952 66.49C208.392 64.95 208.112 63.256 208.112 61.408C208.112 59.56 208.392 57.894 208.952 56.41C209.512 54.926 210.31 53.68 211.346 52.672C212.382 51.636 213.614 50.838 215.042 50.278C216.498 49.718 218.108 49.438 219.872 49.438C221.636 49.438 223.246 49.718 224.702 50.278C226.158 50.838 227.404 51.636 228.44 52.672C229.476 53.68 230.274 54.94 230.834 56.452C231.422 57.936 231.716 59.602 231.716 61.45C231.716 63.298 231.436 64.978 230.876 66.49C230.316 68.002 229.518 69.29 228.482 70.354C227.446 71.39 226.2 72.202 224.744 72.79C223.288 73.35 221.678 73.63 219.914 73.63ZM219.914 50.194C219.326 50.194 218.808 50.362 218.36 50.698C217.94 51.006 217.576 51.58 217.268 52.42C216.988 53.26 216.764 54.422 216.596 55.906C216.456 57.362 216.386 59.21 216.386 61.45C216.386 63.718 216.456 65.594 216.596 67.078C216.764 68.534 216.988 69.696 217.268 70.564C217.576 71.432 217.954 72.034 218.402 72.37C218.85 72.706 219.368 72.874 219.956 72.874C220.544 72.874 221.048 72.706 221.468 72.37C221.916 72.006 222.28 71.404 222.56 70.564C222.84 69.696 223.05 68.52 223.19 67.036C223.358 65.552 223.442 63.676 223.442 61.408C223.442 59.168 223.372 57.32 223.232 55.864C223.092 54.408 222.868 53.26 222.56 52.42C222.28 51.58 221.916 51.006 221.468 50.698C221.02 50.362 220.502 50.194 219.914 50.194Z" fill="white"/>
<path d="M233.01 72.286L235.404 71.656V52.63L232.884 51.622V50.908L241.998 49.564L242.922 49.648V52.672H243.174C244.154 51.664 245.218 50.88 246.366 50.32C247.514 49.732 248.83 49.438 250.314 49.438C251.63 49.438 252.708 49.69 253.548 50.194C254.388 50.67 255.032 51.51 255.48 52.714H255.648C256.684 51.678 257.79 50.88 258.966 50.32C260.17 49.732 261.514 49.438 262.998 49.438C264.874 49.438 266.316 49.942 267.324 50.95C268.332 51.93 268.836 53.47 268.836 55.57V71.656L271.272 72.286V73H259.428V72.286L261.318 71.656V55.696C261.318 54.66 261.08 53.918 260.604 53.47C260.128 52.994 259.414 52.756 258.462 52.756C258.014 52.756 257.552 52.826 257.076 52.966C256.628 53.106 256.222 53.274 255.858 53.47V71.656L257.748 72.286V73H246.576V72.286L248.508 71.656V55.696C248.508 54.66 248.284 53.918 247.836 53.47C247.388 52.994 246.674 52.756 245.694 52.756C245.162 52.756 244.672 52.84 244.224 53.008C243.804 53.148 243.412 53.316 243.048 53.512V71.656L244.896 72.286V73H233.01V72.286Z" fill="white"/>
<path d="M293.932 60.694H280.156C280.296 63.522 280.926 65.762 282.046 67.414C283.194 69.038 285.224 69.85 288.136 69.85C289.088 69.85 289.984 69.78 290.824 69.64C291.664 69.5 292.476 69.262 293.26 68.926V69.598C292.616 70.578 291.51 71.502 289.942 72.37C288.374 73.21 286.456 73.63 284.188 73.63C280.324 73.63 277.398 72.538 275.41 70.354C273.422 68.142 272.428 65.16 272.428 61.408C272.428 57.74 273.45 54.842 275.494 52.714C277.566 50.558 280.352 49.48 283.852 49.48C287.38 49.48 289.942 50.404 291.538 52.252C293.134 54.072 293.932 56.69 293.932 60.106V60.694ZM283.684 50.278C282.592 50.278 281.724 51.048 281.08 52.588C280.464 54.128 280.156 56.55 280.156 59.854L286.666 59.56C286.666 55.976 286.414 53.54 285.91 52.252C285.434 50.936 284.692 50.278 283.684 50.278Z" fill="white"/>
<path d="M298.129 51.58H294.853V50.824L298.129 49.984V45.448L305.773 44.23V49.984H310.855V51.58H305.773V66.868C305.773 68.044 305.997 68.898 306.445 69.43C306.893 69.934 307.747 70.186 309.007 70.186C309.399 70.186 309.777 70.172 310.141 70.144C310.533 70.088 310.855 70.032 311.107 69.976V70.69C310.435 71.39 309.539 72.034 308.419 72.622C307.327 73.182 306.095 73.462 304.723 73.462C302.539 73.462 300.887 72.916 299.767 71.824C298.675 70.732 298.129 68.954 298.129 66.49V51.58Z" fill="white"/>
<path d="M312.006 72.286L314.4 71.614V42.886L311.88 41.878V41.164L320.994 39.82L321.96 39.946V52.588H322.212C323.192 51.58 324.382 50.81 325.782 50.278C327.182 49.718 328.596 49.438 330.024 49.438C332.012 49.438 333.468 49.928 334.392 50.908C335.316 51.888 335.778 53.428 335.778 55.528V71.614L338.172 72.286V73H325.992V72.286L328.134 71.74V55.948C328.134 54.828 327.882 54.002 327.378 53.47C326.874 52.938 326.132 52.672 325.152 52.672C324.536 52.672 323.976 52.742 323.472 52.882C322.996 53.022 322.534 53.204 322.086 53.428V71.74L324.186 72.286V73H312.006V72.286Z" fill="white"/>
<path d="M345.33 40.156C346.422 40.156 347.374 40.534 348.186 41.29C348.998 42.046 349.404 42.984 349.404 44.104C349.404 45.224 348.998 46.162 348.186 46.918C347.374 47.646 346.422 48.01 345.33 48.01C344.21 48.01 343.258 47.646 342.474 46.918C341.69 46.162 341.298 45.224 341.298 44.104C341.298 42.984 341.69 42.046 342.474 41.29C343.258 40.534 344.21 40.156 345.33 40.156ZM339.114 50.908L348.312 49.564L349.362 49.648V71.614L351.714 72.286V73H339.282V72.286L341.676 71.614V52.63L339.114 51.622V50.908Z" fill="white"/>
<path d="M352.981 72.286L355.375 71.614V52.63L352.855 51.622V50.908L362.011 49.564L362.935 49.648V52.588H363.187C364.167 51.58 365.357 50.81 366.757 50.278C368.157 49.718 369.571 49.438 370.999 49.438C372.987 49.438 374.443 49.928 375.367 50.908C376.291 51.888 376.753 53.428 376.753 55.528V71.614L379.147 72.286V73H366.967V72.286L369.109 71.74V55.948C369.109 54.828 368.857 54.002 368.353 53.47C367.849 52.938 367.107 52.672 366.127 52.672C365.511 52.672 364.951 52.742 364.447 52.882C363.971 53.022 363.509 53.204 363.061 53.428V71.74L365.161 72.286V73H352.981V72.286Z" fill="white"/>
<path d="M390.057 82.408C386.389 82.408 383.617 82.086 381.741 81.442C379.865 80.798 378.927 79.72 378.927 78.208C378.927 77.34 379.431 76.626 380.439 76.066C381.475 75.534 382.805 75.128 384.429 74.848V74.638C383.253 74.33 382.301 73.826 381.573 73.126C380.845 72.454 380.481 71.558 380.481 70.438C380.481 69.206 380.929 68.128 381.825 67.204C382.749 66.252 383.967 65.552 385.479 65.104V64.894C383.967 64.278 382.735 63.326 381.783 62.038C380.831 60.722 380.355 59.238 380.355 57.586C380.355 54.982 381.265 52.98 383.085 51.58C384.933 50.152 387.327 49.438 390.267 49.438C391.135 49.438 391.947 49.522 392.703 49.69C393.487 49.858 394.187 50.04 394.803 50.236L402.195 49.312V53.092L396.861 51.412V51.664C397.981 52.448 398.807 53.358 399.339 54.394C399.899 55.43 400.179 56.564 400.179 57.796C400.179 60.372 399.255 62.332 397.407 63.676C395.559 65.02 393.179 65.692 390.267 65.692C389.539 65.692 388.853 65.65 388.209 65.566C387.565 65.454 386.963 65.342 386.403 65.23C386.207 65.426 386.039 65.664 385.899 65.944C385.759 66.196 385.689 66.49 385.689 66.826C385.689 67.302 385.829 67.68 386.109 67.96C386.417 68.212 386.907 68.338 387.579 68.338H395.181C397.729 68.338 399.633 68.758 400.893 69.598C402.153 70.438 402.783 71.894 402.783 73.966C402.783 76.402 401.719 78.418 399.591 80.014C397.463 81.61 394.285 82.408 390.057 82.408ZM392.997 57.712C392.997 54.828 392.759 52.868 392.283 51.832C391.807 50.768 391.135 50.236 390.267 50.236C389.399 50.236 388.727 50.768 388.251 51.832C387.803 52.868 387.579 54.842 387.579 57.754C387.579 60.47 387.803 62.346 388.251 63.382C388.727 64.39 389.399 64.894 390.267 64.894C391.135 64.894 391.807 64.376 392.283 63.34C392.759 62.276 392.997 60.4 392.997 57.712ZM390.183 81.61C392.535 81.61 394.285 81.19 395.433 80.35C396.609 79.538 397.197 78.46 397.197 77.116C397.197 76.388 397.001 75.842 396.609 75.478C396.217 75.114 395.517 74.932 394.509 74.932H385.395C385.199 75.296 385.045 75.674 384.933 76.066C384.821 76.486 384.765 76.976 384.765 77.536C384.765 78.768 385.157 79.748 385.941 80.476C386.753 81.232 388.167 81.61 390.183 81.61Z" fill="white"/>
<path d="M435.423 60.82C435.423 63.06 435.129 64.992 434.541 66.616C433.981 68.24 433.211 69.57 432.231 70.606C431.251 71.614 430.103 72.356 428.787 72.832C427.499 73.308 426.141 73.546 424.713 73.546C423.845 73.546 423.061 73.49 422.361 73.378C421.689 73.266 421.185 73.154 420.849 73.042V80.686L423.579 81.274V81.988H410.769V81.274L413.163 80.686V52.63L410.643 51.622V50.908L419.925 49.564L420.807 49.648V52.294H421.059C421.647 51.594 422.487 50.95 423.579 50.362C424.671 49.746 425.987 49.438 427.527 49.438C428.619 49.438 429.641 49.648 430.593 50.068C431.573 50.46 432.413 51.104 433.113 52C433.841 52.896 434.401 54.072 434.793 55.528C435.213 56.984 435.423 58.748 435.423 60.82ZM427.401 61.66C427.401 58.16 427.037 55.78 426.309 54.52C425.581 53.26 424.573 52.63 423.285 52.63C422.809 52.63 422.361 52.686 421.941 52.798C421.521 52.882 421.157 52.98 420.849 53.092V71.656C421.129 71.852 421.451 72.034 421.815 72.202C422.179 72.37 422.627 72.454 423.159 72.454C424.475 72.454 425.511 71.656 426.267 70.06C427.023 68.464 427.401 65.664 427.401 61.66Z" fill="white"/>
<path d="M448.741 73.63C447.005 73.63 445.409 73.35 443.953 72.79C442.497 72.202 441.251 71.39 440.215 70.354C439.179 69.29 438.367 68.002 437.779 66.49C437.219 64.95 436.939 63.256 436.939 61.408C436.939 59.56 437.219 57.894 437.779 56.41C438.339 54.926 439.137 53.68 440.173 52.672C441.209 51.636 442.441 50.838 443.869 50.278C445.325 49.718 446.935 49.438 448.699 49.438C450.463 49.438 452.073 49.718 453.529 50.278C454.985 50.838 456.231 51.636 457.267 52.672C458.303 53.68 459.101 54.94 459.661 56.452C460.249 57.936 460.543 59.602 460.543 61.45C460.543 63.298 460.263 64.978 459.703 66.49C459.143 68.002 458.345 69.29 457.309 70.354C456.273 71.39 455.027 72.202 453.571 72.79C452.115 73.35 450.505 73.63 448.741 73.63ZM448.741 50.194C448.153 50.194 447.635 50.362 447.187 50.698C446.767 51.006 446.403 51.58 446.095 52.42C445.815 53.26 445.591 54.422 445.423 55.906C445.283 57.362 445.213 59.21 445.213 61.45C445.213 63.718 445.283 65.594 445.423 67.078C445.591 68.534 445.815 69.696 446.095 70.564C446.403 71.432 446.781 72.034 447.229 72.37C447.677 72.706 448.195 72.874 448.783 72.874C449.371 72.874 449.875 72.706 450.295 72.37C450.743 72.006 451.107 71.404 451.387 70.564C451.667 69.696 451.877 68.52 452.017 67.036C452.185 65.552 452.269 63.676 452.269 61.408C452.269 59.168 452.199 57.32 452.059 55.864C451.919 54.408 451.695 53.26 451.387 52.42C451.107 51.58 450.743 51.006 450.295 50.698C449.847 50.362 449.329 50.194 448.741 50.194Z" fill="white"/>
<path d="M482.279 49.984L487.403 65.818H487.697L491.183 52.42L487.949 50.698V49.984H494.669V50.698L491.981 52.462L486.647 73H481.985L477.239 57.418H477.071L473.039 73H468.419L462.245 51.874L460.061 50.698V49.984H472.367V50.698L470.351 51.496L473.879 65.482H474.173L478.079 49.984H482.279Z" fill="white"/>
<path d="M515.662 60.694H501.886C502.026 63.522 502.656 65.762 503.776 67.414C504.924 69.038 506.954 69.85 509.866 69.85C510.818 69.85 511.714 69.78 512.554 69.64C513.394 69.5 514.206 69.262 514.99 68.926V69.598C514.346 70.578 513.24 71.502 511.672 72.37C510.104 73.21 508.186 73.63 505.918 73.63C502.054 73.63 499.128 72.538 497.14 70.354C495.152 68.142 494.158 65.16 494.158 61.408C494.158 57.74 495.18 54.842 497.224 52.714C499.296 50.558 502.082 49.48 505.582 49.48C509.11 49.48 511.672 50.404 513.268 52.252C514.864 54.072 515.662 56.69 515.662 60.106V60.694ZM505.414 50.278C504.322 50.278 503.454 51.048 502.81 52.588C502.194 54.128 501.886 56.55 501.886 59.854L508.396 59.56C508.396 55.976 508.144 53.54 507.64 52.252C507.164 50.936 506.422 50.278 505.414 50.278Z" fill="white"/>
<path d="M517.245 50.908L526.527 49.564L527.283 49.648V56.2H527.493C528.081 53.708 528.851 51.944 529.803 50.908C530.783 49.844 531.917 49.312 533.205 49.312C533.401 49.312 533.611 49.326 533.835 49.354C534.059 49.382 534.227 49.424 534.339 49.48V56.41C534.143 56.354 533.863 56.312 533.499 56.284C533.163 56.256 532.813 56.242 532.449 56.242C531.413 56.242 530.489 56.298 529.677 56.41C528.865 56.522 528.123 56.718 527.451 56.998V71.656L530.559 72.286V73H517.371V72.286L519.765 71.656V52.63L517.245 51.622V50.908Z" fill="white"/>
<path d="M545.499 71.614L548.481 72.286V73H535.377V72.286L537.813 71.614V51.58H535.251V50.824L537.813 49.984V47.632C537.813 46.204 538.051 45 538.527 44.02C539.031 43.012 539.689 42.2 540.501 41.584C541.341 40.94 542.307 40.478 543.399 40.198C544.519 39.918 545.695 39.778 546.927 39.778C547.907 39.778 548.803 39.806 549.615 39.862C550.427 39.918 551.379 40.03 552.471 40.198L552.597 47.044H551.883L547.809 40.576C546.997 40.576 546.409 40.954 546.045 41.71C545.681 42.438 545.499 43.81 545.499 45.826V49.984H549.741V51.58H545.499V71.614Z" fill="white"/>
<path d="M553.145 52.63L550.625 51.622V50.908L559.823 49.564L560.831 49.648V67.036C560.831 68.324 561.083 69.192 561.587 69.64C562.119 70.088 562.847 70.312 563.771 70.312C564.303 70.312 564.793 70.256 565.241 70.144C565.717 70.004 566.179 69.836 566.627 69.64V52.63L564.107 51.622V50.908L573.305 49.564L574.229 49.648V70.354L576.707 71.362V72.076L567.635 73.504L566.711 73.42V70.48H566.459C565.591 71.348 564.583 72.09 563.435 72.706C562.287 73.294 560.999 73.588 559.571 73.588C557.387 73.588 555.763 72.986 554.699 71.782C553.663 70.578 553.145 68.996 553.145 67.036V52.63Z" fill="white"/>
<path d="M577.907 41.164L587.231 39.82L588.155 39.946V71.614L590.549 72.286V73H578.075V72.286L580.469 71.614V42.844L577.907 41.878V41.164Z" fill="white"/>
<path d="M596.607 73.588C595.347 73.588 594.311 73.168 593.499 72.328C592.715 71.46 592.323 70.438 592.323 69.262C592.323 68.114 592.715 67.134 593.499 66.322C594.311 65.482 595.347 65.062 596.607 65.062C597.895 65.062 598.931 65.482 599.715 66.322C600.527 67.134 600.933 68.114 600.933 69.262C600.933 70.438 600.527 71.46 599.715 72.328C598.931 73.168 597.895 73.588 596.607 73.588Z" fill="white"/>
</svg>
