<?xml version="1.0" encoding="utf-8"?>
<!-- Generator: Adobe Illustrator 24.1.0, SVG Export Plug-In . SVG Version: 6.00 Build 0)  -->
<svg version="1.1" id="Layer_1" xmlns="http://www.w3.org/2000/svg" xmlns:xlink="http://www.w3.org/1999/xlink" x="0px" y="0px"
	 viewBox="0 0 636 134" style="enable-background:new 0 0 636 134;" xml:space="preserve">
<style type="text/css">
	.st0{fill:#FFFFFF;}
</style>
<g id="Color_Fill_1_xA0_Image_1_">
</g>
<g id="sun_1_">
</g>
<g id="btns_1_">
	<g id="btn1_xA0_Image_1_">
	</g>
	<g id="btn2_xA0_Image_1_">
	</g>
	<g id="close_btn_xA0_Image_1_">
	</g>
</g>
<g id="roundel_xA0_Image_1_">
</g>
<g>
	<path d="M28.1,58.3l3.7-0.8V44.4l-9.2-19.2L20.3,24v-0.9h15.9V24l-2.8,1.1l8.3,17.5h0.2l6.5-16.3L43.7,24v-0.9h9.5V24l-3.9,2.5
		l-7,17.7v13.5l3.6,0.8v0.9H28.1V58.3z"/>
	<path d="M50.4,45.4c0-8.8,5.6-14.3,14-14.3c8.4,0,14.1,5.5,14.1,14.3c0,8.9-5.6,14.5-14.1,14.5C56.1,59.9,50.4,54.3,50.4,45.4z
		 M60.3,45.4c0,10.8,1.4,13.6,4.2,13.6c2.8,0,4.2-2.9,4.2-13.7c0-10.8-1.4-13.4-4.2-13.4C61.7,32,60.3,34.7,60.3,45.4z"/>
	<path d="M79.6,33.7v-0.9l11-1.6l1.2,0.1v20.7c0,3.1,1.3,3.9,3.5,3.9c1.3,0,2.4-0.4,3.4-0.8V34.9l-3-1.2v-0.9l11-1.6l1.1,0.1V56
		l3,1.2v0.9l-10.8,1.7l-1.1-0.1v-3.5h-0.3c-2,2-4.8,3.7-8.2,3.7c-5.3,0-7.7-3.1-7.7-7.8V34.9L79.6,33.7z"/>
	<path d="M135.4,43.1v-3.6c0-5.6-1.2-7.4-4.2-7.4c-0.4,0-0.7,0-1,0.1l-6.8,9.2h-0.9l0.2-8.5c2.6-0.8,5.9-1.7,10.2-1.7
		c7.4,0,11.7,2.1,11.7,8.3v17.8l2.7,0.7v0.7c-1.1,0.6-3.2,1.2-5.5,1.2c-3.6,0-5.4-1.2-6.2-3.2h-0.2c-1.6,2.1-3.8,3.3-7.2,3.3
		c-4.4,0-7.4-2.8-7.4-7.5c0-4.6,2.9-7.1,8.7-8.2L135.4,43.1z M135.4,55.4v-11l-1.9,0.1c-2.9,0.2-4,2.1-4,6.2c0,4.5,1.5,5.6,3.5,5.6
		C134.2,56.3,134.9,56,135.4,55.4z"/>
	<path d="M159.5,31.3l0.9,0.1v7.8h0.2c1.4-6,3.7-8.2,6.8-8.2c0.5,0,1.1,0,1.4,0.2v8.3c-0.5-0.2-1.4-0.2-2.2-0.2
		c-2.5,0-4.4,0.2-6,0.9v17.5l3.7,0.8v0.9h-15.7v-0.9l2.9-0.8V34.9l-3-1.2v-0.9L159.5,31.3z"/>
	<path d="M179.3,44.5c0.4,6.8,2.5,10.9,9.5,10.9c2.3,0,4.3-0.3,6.1-1.1v0.8c-1.6,2.4-5.4,4.8-10.8,4.8c-9.3,0-14-5.6-14-14.6
		c0-8.8,5.2-14.2,13.6-14.2c8.5,0,12,4.5,12,12.7v0.7H179.3z M179.3,43.5l7.8-0.4c0-8.6-1.1-11.1-3.6-11.1
		C180.9,32.1,179.3,35.6,179.3,43.5z"/>
	<path d="M220.9,43.1v-3.6c0-5.6-1.2-7.4-4.2-7.4c-0.4,0-0.6,0-1,0.1l-6.8,9.2h-0.9l0.2-8.5c2.6-0.8,5.9-1.7,10.2-1.7
		c7.4,0,11.7,2.1,11.7,8.3v17.8l2.7,0.7v0.7c-1.1,0.6-3.2,1.2-5.5,1.2c-3.6,0-5.4-1.2-6.2-3.2h-0.2c-1.6,2.1-3.8,3.3-7.2,3.3
		c-4.4,0-7.4-2.8-7.4-7.5c0-4.6,2.9-7.1,8.7-8.2L220.9,43.1z M220.9,55.4v-11l-1.9,0.1c-2.9,0.2-4,2.1-4,6.2c0,4.5,1.5,5.6,3.5,5.6
		C219.8,56.3,220.4,56,220.9,55.4z"/>
	<path d="M245,31.3l0.9,0.1v7.8h0.2c1.4-6,3.7-8.2,6.8-8.2c0.5,0,1.1,0,1.4,0.2v8.3c-0.5-0.2-1.4-0.2-2.2-0.2c-2.5,0-4.4,0.2-6,0.9
		v17.5l3.7,0.8v0.9h-15.7v-0.9l2.9-0.8V34.9l-3-1.2v-0.9L245,31.3z"/>
	<path d="M264.9,44.5c0.4,6.8,2.5,10.9,9.5,10.9c2.3,0,4.3-0.3,6.1-1.1v0.8c-1.6,2.4-5.4,4.8-10.8,4.8c-9.3,0-14-5.6-14-14.6
		c0-8.8,5.2-14.2,13.6-14.2c8.5,0,12,4.5,12,12.7v0.7H264.9z M264.9,43.5l7.8-0.4c0-8.6-1.1-11.1-3.6-11.1
		C266.5,32.1,264.9,35.6,264.9,43.5z"/>
	<path d="M309.4,32.1v-8.9l-3-1.1v-0.9l11.1-1.6l1.1,0.1v36.9l3,1v0.9l-11.2,1.2l-0.9-0.1v-3.1h-0.2c-1.6,1.8-3.7,3.3-7,3.3
		c-6,0-10.3-4.6-10.3-13.9c0-9.8,5.1-14.8,12.7-14.8C306.9,31.2,308.6,31.6,309.4,32.1z M309.4,55.4V33.3c-0.7-0.4-1.6-0.7-3-0.7
		c-3,0-4.9,3.5-4.9,12.3c0,8,1.8,11.1,5.3,11.1C308,56,308.9,55.8,309.4,55.4z"/>
	<path d="M322.7,45.4c0-8.8,5.6-14.3,14-14.3s14.1,5.5,14.1,14.3c0,8.9-5.6,14.5-14.1,14.5C328.4,59.9,322.7,54.3,322.7,45.4z
		 M332.5,45.4c0,10.8,1.5,13.6,4.3,13.6c2.8,0,4.2-2.9,4.2-13.7c0-10.8-1.4-13.4-4.2-13.4C334,32,332.5,34.7,332.5,45.4z"/>
	<path d="M363.1,31.3l1.2,0.1v26.2l2.8,0.8v0.9h-14.8v-0.9l2.9-0.8V34.9l-3.1-1.2v-0.9L363.1,31.3z M364.4,24.8
		c0,2.7-2.2,4.7-4.9,4.7c-2.7,0-4.8-2-4.8-4.7c0-2.6,2.1-4.7,4.8-4.7C362.2,20.1,364.4,22.1,364.4,24.8z"/>
	<path d="M371.5,57.5V34.9l-3-1.2v-0.9l10.9-1.6l1.1,0.1v3.5h0.3c2.4-2.4,5.9-3.8,9.3-3.8c4.8,0,6.9,2.2,6.9,7.3v19.2l2.9,0.8v0.9
		h-14.5v-0.9l2.5-0.6V38.9c0-2.7-1.2-3.9-3.5-3.9c-1.5,0-2.6,0.4-3.7,0.9v21.8l2.5,0.6v0.9h-14.5v-0.9L371.5,57.5z"/>
	<path d="M399.5,65.4c0-2.1,2.6-3.4,6.5-4v-0.2c-2.8-0.8-4.7-2.4-4.7-5c0-3,2.3-5.2,6-6.4v-0.2c-3.6-1.5-6.1-4.8-6.1-8.7
		c0-6.2,4.8-9.7,11.8-9.7c2,0,3.9,0.5,5.4,1l8.8-1.1v4.5l-6.4-2v0.3c2.7,1.9,4,4.4,4,7.3c0,6.2-4.8,9.4-11.8,9.4
		c-1.8,0-3.3-0.3-4.6-0.5c-0.5,0.5-0.9,1.1-0.9,1.9c0,1.2,0.7,1.8,2.3,1.8h9c6.1,0,9.1,1.8,9.1,6.7c0,5.9-5,10.1-15.2,10.1
		C404,70.4,399.5,69,399.5,65.4z M421.3,64.1c0-1.8-0.8-2.6-3.2-2.6h-10.9c-0.5,0.9-0.8,1.8-0.8,3.1c0,3,1.6,4.9,6.5,4.9
		C418.5,69.4,421.3,67.3,421.3,64.1z M413,32.1c-2.1,0-3.2,2-3.2,9c0,6.5,1.1,8.5,3.2,8.5c2,0,3.2-2.1,3.2-8.6
		C416.3,34.1,415.1,32.1,413,32.1z"/>
</g>
<g>
	<path class="st0" d="M119.2,97.8c0,5.7-4,9.1-11.3,9.1c-3.3,0-6.7-0.4-9.4-1.4l-0.3-8.1h0.9l7.2,8.4c0.5,0.2,1.1,0.2,1.5,0.2
		c3.1,0,4.5-1.7,4.5-4.2c0-2.2-1.2-3.1-4.4-4.6l-1.6-0.8c-5-2.3-7.9-4.8-7.9-9.4c0-5.6,3.9-8.9,10.6-8.9c2.8,0,5.8,0.2,8.1,0.9
		l0.2,7.5h-0.9l-5.5-7.3c-0.6-0.2-1.2-0.3-1.8-0.3c-2.7,0-3.9,1.6-3.9,3.8c0,2.5,1.1,3.2,4.5,4.8l1.5,0.7
		C116.5,90.6,119.2,92.8,119.2,97.8z"/>
	<path class="st0" d="M121,92.4c0-8.8,5.6-14.3,14-14.3c8.4,0,14.1,5.5,14.1,14.3c0,8.9-5.6,14.5-14.1,14.5
		C126.7,106.9,121,101.3,121,92.4z M130.8,92.4c0,10.8,1.4,13.6,4.2,13.6c2.8,0,4.2-2.8,4.2-13.7c0-10.8-1.4-13.4-4.2-13.4
		C132.3,79,130.8,81.7,130.8,92.4z"/>
	<path class="st0" d="M153.5,104.6V81.9l-3-1.2v-0.9l10.9-1.6l1.1,0.1V82h0.3c2.4-2.4,5-3.9,8.5-3.9c3.1,0,5.1,1,6.2,3.9h0.2
		c2.5-2.5,5.2-3.9,8.8-3.9c4.5,0,7,2.3,7,7.3v19.2l2.9,0.8v0.8h-14.1v-0.8l2.2-0.8v-19c0-2.5-1.1-3.5-3.4-3.5
		c-1.1,0-2.2,0.4-3.1,0.9v21.7l2.3,0.8v0.8h-13.3v-0.8l2.3-0.8v-19c0-2.5-1-3.5-3.4-3.5c-1.2,0-2.2,0.4-3.2,0.9v21.6l2.2,0.8v0.8
		h-14.2v-0.8L153.5,104.6z"/>
	<path class="st0" d="M206.8,91.5c0.4,6.8,2.5,10.9,9.5,10.9c2.3,0,4.3-0.3,6.1-1.1v0.8c-1.6,2.3-5.4,4.8-10.8,4.8
		c-9.3,0-14-5.6-14-14.6c0-8.8,5.2-14.2,13.6-14.2c8.5,0,12,4.5,12,12.7v0.7H206.8z M206.8,90.5l7.8-0.3c0-8.6-1.1-11.1-3.6-11.1
		C208.4,79.1,206.8,82.6,206.8,90.5z"/>
	<path class="st0" d="M224.3,80.7v-0.9l3.9-1v-5.4l9.1-1.5v6.9h6.1v1.9h-6.1v18.2c0,2.8,0.8,4,3.9,4c1,0,1.9-0.1,2.5-0.2v0.9
		c-1.6,1.7-4.4,3.3-7.6,3.3c-5.2,0-7.9-2.4-7.9-8.3V80.7H224.3z"/>
	<path class="st0" d="M247.5,104.5V70.3l-3-1.2v-0.8l10.9-1.6l1.1,0.1v15.1h0.3c2.4-2.4,5.9-3.8,9.3-3.8c4.8,0,6.9,2.2,6.9,7.3v19.2
		l2.9,0.8v0.8h-14.5v-0.8l2.6-0.7V85.9c0-2.7-1.2-3.9-3.6-3.9c-1.5,0-2.6,0.3-3.7,0.9v21.8l2.5,0.7v0.8h-14.5v-0.8L247.5,104.5z"/>
	<path class="st0" d="M287.9,78.3l1.2,0.1v26.2l2.8,0.8v0.8h-14.8v-0.8l2.9-0.8V81.9l-3.1-1.2v-0.9L287.9,78.3z M289.2,71.8
		c0,2.7-2.2,4.7-4.9,4.7c-2.7,0-4.8-2-4.8-4.7s2.1-4.7,4.8-4.7C286.9,67.1,289.2,69.1,289.2,71.8z"/>
	<path class="st0" d="M296.3,104.5V81.9l-3-1.2v-0.9l10.9-1.6l1.1,0.1v3.5h0.3c2.4-2.4,5.9-3.8,9.3-3.8c4.8,0,6.9,2.2,6.9,7.3v19.2
		l2.9,0.8v0.8h-14.5v-0.8l2.6-0.7V85.9c0-2.7-1.2-3.9-3.6-3.9c-1.5,0-2.6,0.3-3.7,0.9v21.8l2.5,0.7v0.8h-14.5v-0.8L296.3,104.5z"/>
	<path class="st0" d="M324.3,112.4c0-2.1,2.7-3.3,6.6-4v-0.2c-2.8-0.8-4.7-2.4-4.7-5c0-3,2.3-5.3,6-6.4v-0.2
		c-3.7-1.5-6.1-4.8-6.1-8.7c0-6.2,4.8-9.7,11.8-9.7c2,0,3.9,0.5,5.4,1L352,78v4.5l-6.4-2v0.3c2.7,1.9,4,4.3,4,7.3
		c0,6.2-4.9,9.4-11.8,9.4c-1.8,0-3.2-0.3-4.6-0.6c-0.5,0.5-0.8,1.1-0.8,1.9c0,1.2,0.6,1.8,2.2,1.8h9.1c6.1,0,9.1,1.8,9.1,6.7
		c0,5.8-5,10.1-15.2,10.1C328.7,117.4,324.3,116,324.3,112.4z M346,111.1c0-1.8-0.8-2.6-3.2-2.6H332c-0.4,0.9-0.8,1.8-0.8,3.1
		c0,3,1.6,4.9,6.5,4.9C343.3,116.4,346,114.3,346,111.1z M337.8,79.1c-2,0-3.2,2-3.2,9c0,6.5,1.2,8.5,3.2,8.5s3.2-2.1,3.2-8.6
		C341,81.1,339.9,79.1,337.8,79.1z"/>
	<path class="st0" d="M378.8,106.8c-2.1,0-3.8-0.3-4.6-0.6v9.1l3.2,0.7v0.8h-15.3V116l2.9-0.7V81.9l-3-1.2v-0.9l11-1.6l1.1,0.1v3.2
		h0.3c1.4-1.7,4-3.4,7.7-3.4c5.3,0,9.4,3.6,9.4,13.6C391.5,102.4,385.6,106.8,378.8,106.8z M377.1,81.9c-1.2,0-2.2,0.2-2.9,0.6v22.1
		c0.7,0.5,1.5,0.9,2.8,0.9c3.2,0,5.1-3.2,5.1-12.9C382,84.3,380.2,81.9,377.1,81.9z"/>
	<path class="st0" d="M393.3,92.4c0-8.8,5.6-14.3,14-14.3s14.1,5.5,14.1,14.3c0,8.9-5.6,14.5-14.1,14.5
		C399,106.9,393.3,101.3,393.3,92.4z M403.2,92.4c0,10.8,1.5,13.6,4.2,13.6c2.8,0,4.2-2.8,4.2-13.7c0-10.8-1.3-13.4-4.2-13.4
		C404.6,79,403.2,81.7,403.2,92.4z"/>
	<path class="st0" d="M453.4,97.6h0.4l4.2-16l-3.9-2v-0.8h8v0.8l-3.2,2.1l-6.3,24.5H447l-5.7-18.6h-0.2l-4.8,18.6h-5.5L423.5,81
		l-2.6-1.4v-0.8h14.7v0.8l-2.4,1l4.2,16.7h0.3l4.7-18.5h5L453.4,97.6z"/>
	<path class="st0" d="M470.7,91.5c0.4,6.8,2.5,10.9,9.5,10.9c2.3,0,4.2-0.3,6.1-1.1v0.8c-1.5,2.3-5.3,4.8-10.8,4.8
		c-9.3,0-14-5.6-14-14.6c0-8.8,5.2-14.2,13.6-14.2c8.5,0,12,4.5,12,12.7v0.7H470.7z M470.7,90.5l7.8-0.3c0-8.6-1.2-11.1-3.6-11.1
		C472.3,79.1,470.7,82.6,470.7,90.5z"/>
	<path class="st0" d="M500,78.3l0.9,0.1v7.8h0.2c1.4-6,3.7-8.2,6.8-8.2c0.5,0,1,0.1,1.3,0.2v8.3c-0.5-0.2-1.4-0.2-2.2-0.2
		c-2.5,0-4.4,0.2-6,0.9v17.5l3.7,0.8v0.8h-15.7v-0.8l2.9-0.8V81.9l-3-1.2v-0.9L500,78.3z"/>
	<path class="st0" d="M526.2,105.3v0.8h-15.6v-0.8l2.9-0.8V80.7h-3.1v-0.9l3.1-1V76c0-6.8,5-9.4,10.9-9.4c2.3,0,4,0.1,6.6,0.5
		l0.1,8.2h-0.8l-4.9-7.7c-2,0-2.8,1.5-2.8,6.3v5h5v1.9h-5v23.9L526.2,105.3z"/>
	<path class="st0" d="M528.7,80.7v-0.9l11-1.6l1.2,0.1v20.7c0,3.1,1.3,3.9,3.5,3.9c1.3,0,2.4-0.3,3.4-0.8V81.9l-3-1.2v-0.9l11-1.6
		l1.1,0.1V103l3,1.2v0.9l-10.8,1.7l-1.1-0.1v-3.5h-0.3c-2,2-4.8,3.7-8.2,3.7c-5.2,0-7.7-3.1-7.7-7.8V81.9L528.7,80.7z"/>
	<path class="st0" d="M572.3,66.7l1.1,0.1v37.7l2.9,0.8v0.8h-14.9v-0.8l2.9-0.8V70.3l-3.1-1.2v-0.8L572.3,66.7z"/>
	<path class="st0" d="M578.4,101.7c0-2.8,2.1-5,5.1-5c3.1,0,5.2,2.2,5.2,5c0,2.8-2.1,5.2-5.2,5.2
		C580.5,106.9,578.4,104.5,578.4,101.7z"/>
</g>
</svg>
