<?xml version="1.0" encoding="utf-8"?>
<!-- Generator: Adobe Illustrator 24.1.0, SVG Export Plug-In . SVG Version: 6.00 Build 0)  -->
<svg version="1.1" xmlns="http://www.w3.org/2000/svg" xmlns:xlink="http://www.w3.org/1999/xlink" x="0px" y="0px"
	 viewBox="0 0 636 134" style="enable-background:new 0 0 636 134;" xml:space="preserve">
<style type="text/css">
	.st0{filter:url(#Adobe_OpacityMaskFilter);}
	.st1{mask:url(#Color_Fill_1_xA0_Image_2_);}
	.st2{fill:#FFFFFF;}
</style>
<defs>
	<filter id="Adobe_OpacityMaskFilter" filterUnits="userSpaceOnUse">
		<feColorMatrix  type="matrix" values="1 0 0 0 0  0 1 0 0 0  0 0 1 0 0  0 0 0 1 0"/>
	</filter>
</defs>
<mask maskUnits="userSpaceOnUse" id="Color_Fill_1_xA0_Image_2_">
	<g id="Color_Fill_1Opacity_Mask_3_" class="st0">
		
			<image style="overflow:visible;" width="1300" height="350" id="Color_Fill_1Opacity_Mask_2_" xlink:href="44B5F14B3A1088A7.jpg" >
		</image>
	</g>
</mask>
<g id="Color_Fill_1_xA0_Image_1_" class="st1">
</g>
<g id="sun_1_">
</g>
<g id="Copy_1_">
	<g id="The_world_has_changed_x2C__and_we_x2019_re_determined_to_build_a_better_t_1_">
	</g>
	<g id="headline_1_">
		<g id="Our_supporters_are_doing">
			<g>
				<path d="M38.8,59.5c-10,0-17.4-6.4-17.4-18.5c0-12.8,8.5-18.8,17.6-18.8c10,0,17.3,6.3,17.3,18.4C56.4,53.4,48,59.5,38.8,59.5z
					 M32.9,40.8c0,14.3,1.6,17.9,6,17.9c4.2,0,5.9-3.7,5.9-17.5c0-14.5-1.7-18-5.9-18S32.9,27,32.9,40.8z"/>
				<path d="M57.7,33.5v-0.9l11-1.6l1.2,0.1v20.7c0,3.1,1.3,3.9,3.5,3.9c1.2,0,2.4-0.4,3.4-0.8V34.7l-3-1.2v-0.9l11-1.6l1.1,0.1
					v24.7l3,1.2v0.9l-10.8,1.7l-1.1-0.1v-3.5h-0.3c-2.1,2-4.8,3.7-8.2,3.7c-5.2,0-7.7-3.1-7.7-7.8V34.7L57.7,33.5z"/>
				<path d="M101.2,31l0.9,0.1v7.8h0.2c1.4-6,3.7-8.2,6.8-8.2c0.5,0,1.1,0,1.4,0.2v8.3c-0.5-0.2-1.4-0.2-2.2-0.2
					c-2.5,0-4.4,0.2-6,0.9v17.5l3.7,0.8v0.9H90.3v-0.9l2.9-0.8V34.7l-3-1.2v-0.9L101.2,31z"/>
				<path d="M141.6,50.5c0,5.7-4,9.1-11.3,9.1c-3.3,0-6.7-0.4-9.4-1.4l-0.3-8.1h0.8l7.2,8.4c0.5,0.1,1,0.2,1.5,0.2
					c3.1,0,4.5-1.6,4.5-4.2c0-2.2-1.2-3.1-4.4-4.6l-1.7-0.8c-5-2.4-7.9-4.8-7.9-9.4c0-5.6,3.9-8.9,10.6-8.9c2.8,0,5.8,0.2,8.1,0.9
					l0.2,7.6h-0.9l-5.5-7.3c-0.6-0.2-1.2-0.3-1.8-0.3c-2.7,0-3.9,1.5-3.9,3.8c0,2.5,1.2,3.3,4.5,4.8l1.6,0.7
					C138.9,43.4,141.6,45.5,141.6,50.5z"/>
				<path d="M143,33.5v-0.9l11-1.6l1.2,0.1v20.7c0,3.1,1.3,3.9,3.5,3.9c1.2,0,2.4-0.4,3.4-0.8V34.7l-3-1.2v-0.9l11-1.6l1.1,0.1v24.7
					l3,1.2v0.9l-10.8,1.7l-1.1-0.1v-3.5h-0.3c-2.1,2-4.8,3.7-8.2,3.7c-5.3,0-7.7-3.1-7.7-7.8V34.7L143,33.5z"/>
				<path d="M192.1,59.6c-2,0-3.8-0.3-4.6-0.6v9.1l3.2,0.7v0.9h-15.3v-0.9l2.9-0.7V34.7l-3-1.2v-0.9l11.1-1.6l1,0.1v3.2h0.3
					c1.4-1.7,4-3.4,7.7-3.4c5.2,0,9.4,3.6,9.4,13.6C204.8,55.2,198.9,59.6,192.1,59.6z M190.4,34.7c-1.1,0-2.1,0.2-2.9,0.5v22.1
					c0.6,0.5,1.5,1,2.8,1c3.2,0,5.1-3.3,5.1-12.9C195.3,37.1,193.5,34.7,190.4,34.7z"/>
				<path d="M223.1,59.6c-2,0-3.8-0.3-4.6-0.6v9.1l3.2,0.7v0.9h-15.3v-0.9l2.9-0.7V34.7l-3-1.2v-0.9l11.1-1.6l1.1,0.1v3.2h0.3
					c1.4-1.7,4-3.4,7.7-3.4c5.2,0,9.4,3.6,9.4,13.6C235.9,55.2,230,59.6,223.1,59.6z M221.4,34.7c-1.2,0-2.2,0.2-2.9,0.5v22.1
					c0.6,0.5,1.5,1,2.8,1c3.2,0,5.1-3.3,5.1-12.9C226.3,37.1,224.5,34.7,221.4,34.7z"/>
				<path d="M237.7,45.1c0-8.8,5.6-14.3,14-14.3s14.1,5.5,14.1,14.3c0,8.9-5.6,14.5-14.1,14.5C243.4,59.7,237.7,54,237.7,45.1z
					 M247.5,45.2c0,10.8,1.5,13.6,4.3,13.6c2.8,0,4.2-2.9,4.2-13.7c0-10.8-1.4-13.4-4.2-13.4C249,31.8,247.5,34.4,247.5,45.2z"/>
				<path d="M278.2,31l0.9,0.1v7.8h0.2c1.4-6,3.7-8.2,6.8-8.2c0.5,0,1.1,0,1.4,0.2v8.3c-0.5-0.2-1.4-0.2-2.2-0.2
					c-2.5,0-4.4,0.2-6,0.9v17.5l3.7,0.8v0.9h-15.7v-0.9l2.9-0.8V34.7l-3-1.2v-0.9L278.2,31z"/>
				<path d="M288.3,33.4v-0.9l3.9-1v-5.4l9.1-1.5v6.9h6.1v1.9h-6.1v18.2c0,2.8,0.9,4,3.9,4c1,0,1.9-0.1,2.5-0.2v0.9
					c-1.6,1.7-4.4,3.3-7.6,3.3c-5.2,0-7.9-2.4-7.9-8.3V33.4H288.3z"/>
				<path d="M317.8,44.3c0.4,6.8,2.5,10.9,9.5,10.9c2.3,0,4.3-0.3,6.1-1.1v0.8c-1.6,2.4-5.4,4.8-10.8,4.8c-9.3,0-14-5.6-14-14.6
					c0-8.8,5.2-14.2,13.6-14.2c8.5,0,12,4.5,12,12.7v0.7H317.8z M317.8,43.3l7.8-0.4c0-8.6-1.1-11.1-3.6-11.1
					C319.4,31.9,317.8,35.4,317.8,43.3z"/>
				<path d="M347.1,31l0.9,0.1v7.8h0.2c1.4-6,3.7-8.2,6.8-8.2c0.5,0,1,0,1.4,0.2v8.3c-0.5-0.2-1.4-0.2-2.2-0.2c-2.5,0-4.4,0.2-6,0.9
					v17.5l3.7,0.8v0.9h-15.7v-0.9l2.9-0.8V34.7l-3-1.2v-0.9L347.1,31z"/>
				<path d="M379,50.5c0,5.7-4,9.1-11.3,9.1c-3.3,0-6.7-0.4-9.4-1.4l-0.3-8.1h0.8l7.2,8.4c0.5,0.1,1.1,0.2,1.5,0.2
					c3.1,0,4.5-1.6,4.5-4.2c0-2.2-1.2-3.1-4.4-4.6l-1.7-0.8c-5-2.4-7.9-4.8-7.9-9.4c0-5.6,3.9-8.9,10.6-8.9c2.8,0,5.8,0.2,8.1,0.9
					l0.2,7.6h-0.9l-5.5-7.3c-0.6-0.2-1.2-0.3-1.8-0.3c-2.7,0-3.9,1.5-3.9,3.8c0,2.5,1.2,3.3,4.5,4.8l1.6,0.7
					C376.3,43.4,379,45.5,379,50.5z"/>
				<path d="M404,42.8v-3.6c0-5.6-1.2-7.4-4.2-7.4c-0.4,0-0.7,0-1,0.1l-6.8,9.2h-0.9l0.2-8.5c2.6-0.8,5.9-1.7,10.2-1.7
					c7.4,0,11.7,2.1,11.7,8.3v17.8l2.7,0.7v0.7c-1.1,0.6-3.2,1.2-5.5,1.2c-3.6,0-5.4-1.2-6.2-3.2H404c-1.6,2.1-3.8,3.3-7.2,3.3
					c-4.4,0-7.4-2.8-7.4-7.5c0-4.6,2.9-7.1,8.7-8.2L404,42.8z M404,55.1v-11l-1.9,0.1c-2.9,0.2-4,2.1-4,6.2c0,4.5,1.5,5.6,3.5,5.6
					C402.9,56.1,403.5,55.7,404,55.1z"/>
				<path d="M428.1,31l0.9,0.1v7.8h0.2c1.4-6,3.7-8.2,6.8-8.2c0.5,0,1.1,0,1.4,0.2v8.3c-0.5-0.2-1.4-0.2-2.2-0.2
					c-2.5,0-4.4,0.2-6,0.9v17.5l3.7,0.8v0.9h-15.7v-0.9l2.9-0.8V34.7l-3-1.2v-0.9L428.1,31z"/>
				<path d="M448,44.3c0.4,6.8,2.5,10.9,9.5,10.9c2.3,0,4.3-0.3,6.1-1.1v0.8c-1.6,2.4-5.4,4.8-10.8,4.8c-9.3,0-14-5.6-14-14.6
					c0-8.8,5.2-14.2,13.6-14.2c8.5,0,12,4.5,12,12.7v0.7H448z M448,43.3l7.8-0.4c0-8.6-1.2-11.1-3.6-11.1
					C449.6,31.9,448,35.4,448,43.3z"/>
				<path d="M492.5,31.8v-8.9l-3-1.1V21l11.1-1.6l1,0.1v36.9l3.1,1v0.9l-11.2,1.2l-0.8-0.1v-3.1h-0.2c-1.6,1.8-3.7,3.3-7,3.3
					c-6,0-10.3-4.6-10.3-13.9c0-9.8,5.1-14.8,12.7-14.8C490,31,491.7,31.4,492.5,31.8z M492.5,55.2V33c-0.7-0.4-1.5-0.7-3-0.7
					c-3,0-4.9,3.5-4.9,12.3c0,8,1.8,11.1,5.3,11.1C491.1,55.8,492,55.5,492.5,55.2z"/>
				<path d="M505.8,45.1c0-8.8,5.6-14.3,14-14.3c8.4,0,14.1,5.5,14.1,14.3c0,8.9-5.6,14.5-14.1,14.5C511.5,59.7,505.8,54,505.8,45.1
					z M515.6,45.2c0,10.8,1.5,13.6,4.2,13.6c2.8,0,4.2-2.9,4.2-13.7c0-10.8-1.4-13.4-4.2-13.4C517.1,31.8,515.6,34.4,515.6,45.2z"/>
				<path d="M546.2,31l1.2,0.1v26.2l2.8,0.8v0.9h-14.8v-0.9l2.9-0.8V34.7l-3.1-1.2v-0.9L546.2,31z M547.5,24.5
					c0,2.7-2.3,4.7-4.9,4.7c-2.7,0-4.8-2-4.8-4.7c0-2.6,2.1-4.7,4.8-4.7C545.3,19.8,547.5,21.9,547.5,24.5z"/>
				<path d="M554.6,57.3V34.7l-3-1.2v-0.9l10.9-1.6l1.1,0.1v3.5h0.3c2.3-2.4,5.9-3.8,9.3-3.8c4.8,0,6.9,2.2,6.9,7.3v19.2l2.9,0.8
					v0.9h-14.5v-0.9l2.6-0.6V38.6c0-2.7-1.2-3.9-3.6-3.9c-1.5,0-2.6,0.4-3.7,0.9v21.8l2.5,0.6v0.9h-14.5v-0.9L554.6,57.3z"/>
				<path d="M582.6,65.1c0-2.1,2.7-3.4,6.6-4v-0.2c-2.8-0.8-4.7-2.4-4.7-5c0-3,2.3-5.2,6-6.4v-0.2c-3.7-1.5-6.1-4.8-6.1-8.7
					c0-6.2,4.8-9.7,11.8-9.7c2,0,3.9,0.5,5.4,1l8.8-1.1v4.5l-6.4-2v0.3c2.6,1.9,4,4.4,4,7.3c0,6.2-4.9,9.4-11.8,9.4
					c-1.8,0-3.3-0.3-4.6-0.5c-0.5,0.5-0.8,1.1-0.8,1.9c0,1.2,0.6,1.8,2.2,1.8h9.1c6.1,0,9.1,1.8,9.1,6.7c0,5.9-5,10.1-15.2,10.1
					C587.1,70.1,582.6,68.7,582.6,65.1z M604.4,63.8c0-1.8-0.8-2.6-3.2-2.6h-10.9c-0.5,0.9-0.8,1.8-0.8,3.1c0,3,1.6,4.9,6.5,4.9
					C601.6,69.2,604.4,67,604.4,63.8z M596.1,31.8c-2.1,0-3.2,2-3.2,9c0,6.5,1.1,8.5,3.2,8.5c2,0,3.2-2.1,3.2-8.6
					C599.4,33.8,598.2,31.8,596.1,31.8z"/>
			</g>
		</g>
		<g id="something_powerful.">
			<g>
				<path class="st2" d="M119.6,97.5c0,5.7-4,9.1-11.3,9.1c-3.3,0-6.7-0.4-9.4-1.4l-0.3-8.1h0.9l7.2,8.4c0.5,0.1,1.1,0.2,1.5,0.2
					c3.1,0,4.5-1.6,4.5-4.2c0-2.2-1.2-3.1-4.4-4.6l-1.6-0.8c-5-2.4-7.9-4.8-7.9-9.4c0-5.6,3.9-8.9,10.6-8.9c2.8,0,5.8,0.2,8.1,0.9
					l0.2,7.6h-0.9l-5.5-7.3c-0.6-0.2-1.2-0.3-1.8-0.3c-2.7,0-3.9,1.5-3.9,3.8c0,2.5,1.1,3.3,4.5,4.8l1.5,0.7
					C116.9,90.4,119.6,92.5,119.6,97.5z"/>
				<path class="st2" d="M121.4,92.1c0-8.8,5.6-14.3,14-14.3c8.4,0,14.1,5.5,14.1,14.3c0,8.9-5.6,14.5-14.1,14.5
					C127.1,106.7,121.4,101,121.4,92.1z M131.3,92.2c0,10.8,1.4,13.6,4.2,13.6c2.8,0,4.2-2.9,4.2-13.7c0-10.8-1.4-13.4-4.2-13.4
					C132.7,78.8,131.3,81.4,131.3,92.2z"/>
				<path class="st2" d="M153.9,104.3V81.7l-3-1.2v-0.9l10.9-1.6l1.1,0.1v3.6h0.3c2.4-2.4,5-3.9,8.5-3.9c3.1,0,5.1,1,6.2,3.9h0.2
					c2.5-2.5,5.2-3.9,8.8-3.9c4.5,0,7,2.3,7,7.3v19.2l2.9,0.8v0.9h-14.1v-0.9l2.2-0.8v-19c0-2.5-1.1-3.5-3.4-3.5
					c-1.1,0-2.2,0.4-3.1,0.9v21.7l2.3,0.8v0.9h-13.3v-0.9l2.3-0.8v-19c0-2.5-1-3.5-3.4-3.5c-1.2,0-2.2,0.4-3.2,0.9v21.6l2.2,0.8v0.9
					h-14.2v-0.9L153.9,104.3z"/>
				<path class="st2" d="M207.2,91.3c0.4,6.8,2.5,10.9,9.5,10.9c2.3,0,4.2-0.3,6.1-1.1v0.8c-1.6,2.4-5.4,4.8-10.8,4.8
					c-9.3,0-14-5.6-14-14.6c0-8.8,5.2-14.2,13.6-14.2c8.5,0,12,4.5,12,12.7v0.7H207.2z M207.2,90.3l7.8-0.4c0-8.6-1.1-11.1-3.6-11.1
					C208.8,78.9,207.2,82.4,207.2,90.3z"/>
				<path class="st2" d="M224.7,80.4v-0.9l3.9-1v-5.4l9.1-1.5v6.9h6.1v1.9h-6.1v18.2c0,2.8,0.8,4,3.9,4c1,0,1.9-0.1,2.5-0.2v0.9
					c-1.6,1.7-4.4,3.3-7.6,3.3c-5.2,0-7.9-2.4-7.9-8.3V80.4H224.7z"/>
				<path class="st2" d="M248,104.3V70.1l-3-1.2V68l10.9-1.6l1.1,0.1v15.1h0.3c2.4-2.4,5.9-3.8,9.3-3.8c4.8,0,6.9,2.2,6.9,7.3v19.2
					l2.9,0.8v0.9h-14.5v-0.9l2.6-0.6V85.6c0-2.7-1.2-3.9-3.6-3.9c-1.5,0-2.6,0.4-3.7,0.9v21.8l2.5,0.6v0.9h-14.5v-0.9L248,104.3z"/>
				<path class="st2" d="M288.3,78l1.2,0.1v26.2l2.8,0.8v0.9h-14.8v-0.9l2.9-0.8V81.7l-3.1-1.2v-0.9L288.3,78z M289.6,71.5
					c0,2.7-2.2,4.7-4.9,4.7c-2.7,0-4.8-2-4.8-4.7c0-2.6,2.1-4.7,4.8-4.7C287.4,66.8,289.6,68.9,289.6,71.5z"/>
				<path class="st2" d="M296.7,104.3V81.7l-3-1.2v-0.9l10.9-1.6l1.1,0.1v3.5h0.3c2.4-2.4,5.9-3.8,9.3-3.8c4.8,0,6.9,2.2,6.9,7.3
					v19.2l2.9,0.8v0.9h-14.5v-0.9l2.6-0.6V85.6c0-2.7-1.2-3.9-3.6-3.9c-1.5,0-2.6,0.4-3.7,0.9v21.8l2.5,0.6v0.9h-14.5v-0.9
					L296.7,104.3z"/>
				<path class="st2" d="M324.7,112.1c0-2.1,2.7-3.4,6.6-4v-0.2c-2.8-0.8-4.7-2.4-4.7-5c0-3,2.3-5.2,6-6.4v-0.2
					c-3.7-1.5-6.1-4.8-6.1-8.7c0-6.2,4.8-9.7,11.8-9.7c2.1,0,3.9,0.5,5.4,1l8.8-1.1v4.5l-6.4-2v0.3c2.6,1.9,4,4.4,4,7.3
					c0,6.2-4.9,9.4-11.8,9.4c-1.8,0-3.2-0.3-4.6-0.5c-0.5,0.5-0.9,1.1-0.9,1.9c0,1.2,0.6,1.8,2.2,1.8h9.1c6.1,0,9.1,1.8,9.1,6.7
					c0,5.9-5,10.1-15.2,10.1C329.2,117.1,324.7,115.7,324.7,112.1z M346.5,110.8c0-1.8-0.8-2.6-3.2-2.6h-10.9
					c-0.5,0.9-0.8,1.8-0.8,3.1c0,3,1.6,4.9,6.5,4.9C343.7,116.2,346.5,114,346.5,110.8z M338.2,78.8c-2.1,0-3.2,2-3.2,9
					c0,6.5,1.1,8.5,3.2,8.5s3.2-2.1,3.2-8.6C341.5,80.8,340.3,78.8,338.2,78.8z"/>
				<path class="st2" d="M379.2,106.6c-2,0-3.8-0.3-4.6-0.6v9.1l3.2,0.7v0.9h-15.3v-0.9l2.9-0.7V81.7l-3-1.2v-0.9l11.1-1.6l1,0.1
					v3.2h0.3c1.4-1.7,4-3.4,7.7-3.4c5.3,0,9.4,3.6,9.4,13.6C392,102.2,386.1,106.6,379.2,106.6z M377.5,81.7c-1.1,0-2.1,0.2-2.9,0.5
					v22.1c0.6,0.5,1.5,1,2.8,1c3.2,0,5.1-3.3,5.1-12.9C382.4,84.1,380.6,81.7,377.5,81.7z"/>
				<path class="st2" d="M393.8,92.1c0-8.8,5.6-14.3,14-14.3s14.1,5.5,14.1,14.3c0,8.9-5.6,14.5-14.1,14.5
					C399.5,106.7,393.8,101,393.8,92.1z M403.6,92.2c0,10.8,1.5,13.6,4.3,13.6c2.8,0,4.2-2.9,4.2-13.7c0-10.8-1.4-13.4-4.2-13.4
					C405.1,78.8,403.6,81.4,403.6,92.2z"/>
				<path class="st2" d="M453.9,97.4h0.3l4.2-16l-3.9-2.1v-0.9h8v0.9l-3.2,2.1l-6.4,24.5h-5.6l-5.7-18.6h-0.2l-4.8,18.6h-5.5
					l-7.4-25.2l-2.6-1.4v-0.9H436v0.9l-2.4,1l4.2,16.7h0.4l4.7-18.5h5L453.9,97.4z"/>
				<path class="st2" d="M471.1,91.3c0.4,6.8,2.5,10.9,9.5,10.9c2.3,0,4.3-0.3,6.1-1.1v0.8c-1.6,2.4-5.4,4.8-10.8,4.8
					c-9.3,0-14-5.6-14-14.6c0-8.8,5.2-14.2,13.6-14.2c8.5,0,12,4.5,12,12.7v0.7H471.1z M471.1,90.3l7.8-0.4c0-8.6-1.1-11.1-3.6-11.1
					C472.7,78.9,471.1,82.4,471.1,90.3z"/>
				<path class="st2" d="M500.5,78l0.9,0.1v7.8h0.2c1.4-6,3.7-8.2,6.8-8.2c0.5,0,1.1,0,1.4,0.2v8.3c-0.5-0.2-1.4-0.2-2.2-0.2
					c-2.5,0-4.4,0.2-6,0.9v17.5l3.7,0.8v0.9h-15.7v-0.9l2.9-0.8V81.7l-3-1.2v-0.9L500.5,78z"/>
				<path class="st2" d="M526.6,105.1v0.9H511v-0.9l2.9-0.8V80.4h-3.1v-0.9l3.1-1v-2.8c0-6.8,5-9.4,10.9-9.4c2.4,0,4,0.1,6.6,0.5
					l0.2,8.2h-0.9l-4.9-7.7c-1.9,0-2.8,1.5-2.8,6.3v5h5.1v1.9h-5.1v23.9L526.6,105.1z"/>
				<path class="st2" d="M529.2,80.5v-0.9l11-1.6l1.2,0.1v20.7c0,3.1,1.3,3.9,3.5,3.9c1.2,0,2.4-0.4,3.4-0.8V81.7l-3-1.2v-0.9
					l11-1.6l1.1,0.1v24.7l3,1.2v0.9l-10.8,1.7l-1.1-0.1v-3.5H548c-2.1,2-4.8,3.7-8.2,3.7c-5.2,0-7.7-3.1-7.7-7.8V81.7L529.2,80.5z"
					/>
				<path class="st2" d="M572.8,66.4l1.1,0.1v37.7l2.9,0.8v0.9h-14.9v-0.9l2.9-0.8V70l-3.1-1.1V68L572.8,66.4z"/>
				<path class="st2" d="M578.8,101.5c0-2.8,2.1-5,5.1-5c3,0,5.1,2.3,5.1,5c0,2.8-2.1,5.2-5.1,5.2
					C580.9,106.6,578.8,104.3,578.8,101.5z"/>
			</g>
		</g>
	</g>
	<g id="_x31_20_1_">
		<g id="Our_existing_Australian_supporters_1_">
		</g>
		<g id="_x31_20_x2C_000">
		</g>
	</g>
	<g id="_x31_50_1_">
		<g id="Our_fundraising_goal">
		</g>
		<g id="_x31_50_x2C_000">
		</g>
	</g>
</g>
<g id="btns_1_">
	<g id="btn1_xA0_Image_1_">
	</g>
	<g id="btn2_xA0_Image_1_">
	</g>
	<g id="close_btn_xA0_Image_1_">
	</g>
</g>
<g id="roundel_xA0_Image_1_">
</g>
</svg>
